<svg xmlns="http://www.w3.org/2000/svg" width="1180" height="440" viewBox="0 0 1180 440" fill="none" font-family="'Inter','SF Pro Display',-apple-system,'Segoe UI',Roboto,Helvetica,Arial,sans-serif">
<defs>
  <linearGradient id="acc" x1="0" y1="0" x2="1" y2="0">
    <stop offset="0" stop-color="#F43F5E"><animate attributeName="stop-color" values="#F43F5E;#FB7185;#F5A742;#F43F5E" dur="10s" repeatCount="indefinite"/></stop>
    <stop offset="1" stop-color="#F5A742"><animate attributeName="stop-color" values="#F5A742;#F43F5E;#FB7185;#F5A742" dur="10s" repeatCount="indefinite"/></stop>
  </linearGradient>
  <linearGradient id="shim" x1="0" y1="0" x2="1" y2="0">
    <stop offset="0" stop-color="#FB7185" stop-opacity="0"/><stop offset="0.5" stop-color="#FB7185" stop-opacity="0.85"/><stop offset="1" stop-color="#F5A742" stop-opacity="0"/>
    <animateTransform attributeName="gradientTransform" type="translate" values="-1 0;1 0" dur="5s" repeatCount="indefinite"/>
  </linearGradient>
  <radialGradient id="orb" cx="0.38" cy="0.34" r="0.75">
    <stop offset="0" stop-color="#F5A742"/><stop offset="0.45" stop-color="#FB7185"/><stop offset="1" stop-color="#F43F5E"/>
    <animate attributeName="cx" values="0.38;0.5;0.38" dur="8s" repeatCount="indefinite"/>
    <animate attributeName="cy" values="0.34;0.46;0.34" dur="8s" repeatCount="indefinite"/>
  </radialGradient>
  <radialGradient id="orbGlow" cx="0.5" cy="0.5" r="0.5"><stop offset="0" stop-color="#F43F5E" stop-opacity="0.32"/><stop offset="1" stop-color="#F43F5E" stop-opacity="0"/></radialGradient>
  <radialGradient id="hi" cx="0.35" cy="0.3" r="0.5"><stop offset="0" stop-color="#ffffff" stop-opacity="0.55"/><stop offset="0.4" stop-color="#ffffff" stop-opacity="0.06"/><stop offset="1" stop-color="#ffffff" stop-opacity="0"/></radialGradient>
  <radialGradient id="bgA" cx="0.5" cy="0.5" r="0.5"><stop offset="0" stop-color="#F43F5E" stop-opacity="0.16"/><stop offset="1" stop-color="#F43F5E" stop-opacity="0"/></radialGradient>
  <radialGradient id="bgB" cx="0.5" cy="0.5" r="0.5"><stop offset="0" stop-color="#F5A742" stop-opacity="0.12"/><stop offset="1" stop-color="#F5A742" stop-opacity="0"/></radialGradient>
  <filter id="blur" x="-80%" y="-80%" width="260%" height="260%"><feGaussianBlur stdDeviation="26"/></filter>
  <filter id="blur2" x="-50%" y="-50%" width="200%" height="200%"><feGaussianBlur stdDeviation="7"/></filter>
  <filter id="grain"><feTurbulence type="fractalNoise" baseFrequency="0.85" numOctaves="2" stitchTiles="stitch"/><feColorMatrix type="saturate" values="0"/></filter>
  <clipPath id="card"><rect x="1" y="1" width="1178" height="438" rx="26"/></clipPath>
</defs>
<rect width="1180" height="440" rx="26" fill="#070B14"/>
<g clip-path="url(#card)">
<rect width="1180" height="440" fill="#0B1120" opacity="0.6"/>
<ellipse cx="930" cy="200" rx="360" ry="300" fill="url(#bgA)" filter="url(#blur)"><animate attributeName="opacity" values="0.8;1;0.8" dur="9s" repeatCount="indefinite"/></ellipse>
<ellipse cx="120" cy="420" rx="340" ry="260" fill="url(#bgB)" filter="url(#blur)"><animate attributeName="opacity" values="0.6;0.95;0.6" dur="11s" repeatCount="indefinite"/></ellipse>
<g fill="#FB7185" opacity="0.055">
<circle cx="28" cy="28" r="1"/>
<circle cx="58" cy="28" r="1"/>
<circle cx="88" cy="28" r="1"/>
<circle cx="118" cy="28" r="1"/>
<circle cx="148" cy="28" r="1"/>
<circle cx="178" cy="28" r="1"/>
<circle cx="208" cy="28" r="1"/>
<circle cx="238" cy="28" r="1"/>
<circle cx="268" cy="28" r="1"/>
<circle cx="298" cy="28" r="1"/>
<circle cx="328" cy="28" r="1"/>
<circle cx="358" cy="28" r="1"/>
<circle cx="388" cy="28" r="1"/>
<circle cx="418" cy="28" r="1"/>
<circle cx="448" cy="28" r="1"/>
<circle cx="478" cy="28" r="1"/>
<circle cx="508" cy="28" r="1"/>
<circle cx="538" cy="28" r="1"/>
<circle cx="568" cy="28" r="1"/>
<circle cx="598" cy="28" r="1"/>
<circle cx="628" cy="28" r="1"/>
<circle cx="658" cy="28" r="1"/>
<circle cx="688" cy="28" r="1"/>
<circle cx="718" cy="28" r="1"/>
<circle cx="748" cy="28" r="1"/>
<circle cx="778" cy="28" r="1"/>
<circle cx="808" cy="28" r="1"/>
<circle cx="838" cy="28" r="1"/>
<circle cx="868" cy="28" r="1"/>
<circle cx="898" cy="28" r="1"/>
<circle cx="928" cy="28" r="1"/>
<circle cx="958" cy="28" r="1"/>
<circle cx="988" cy="28" r="1"/>
<circle cx="1018" cy="28" r="1"/>
<circle cx="1048" cy="28" r="1"/>
<circle cx="1078" cy="28" r="1"/>
<circle cx="1108" cy="28" r="1"/>
<circle cx="1138" cy="28" r="1"/>
<circle cx="1168" cy="28" r="1"/>
<circle cx="28" cy="58" r="1"/>
<circle cx="58" cy="58" r="1"/>
<circle cx="88" cy="58" r="1"/>
<circle cx="118" cy="58" r="1"/>
<circle cx="148" cy="58" r="1"/>
<circle cx="178" cy="58" r="1"/>
<circle cx="208" cy="58" r="1"/>
<circle cx="238" cy="58" r="1"/>
<circle cx="268" cy="58" r="1"/>
<circle cx="298" cy="58" r="1"/>
<circle cx="328" cy="58" r="1"/>
<circle cx="358" cy="58" r="1"/>
<circle cx="388" cy="58" r="1"/>
<circle cx="418" cy="58" r="1"/>
<circle cx="448" cy="58" r="1"/>
<circle cx="478" cy="58" r="1"/>
<circle cx="508" cy="58" r="1"/>
<circle cx="538" cy="58" r="1"/>
<circle cx="568" cy="58" r="1"/>
<circle cx="598" cy="58" r="1"/>
<circle cx="628" cy="58" r="1"/>
<circle cx="658" cy="58" r="1"/>
<circle cx="688" cy="58" r="1"/>
<circle cx="718" cy="58" r="1"/>
<circle cx="748" cy="58" r="1"/>
<circle cx="778" cy="58" r="1"/>
<circle cx="808" cy="58" r="1"/>
<circle cx="838" cy="58" r="1"/>
<circle cx="868" cy="58" r="1"/>
<circle cx="898" cy="58" r="1"/>
<circle cx="928" cy="58" r="1"/>
<circle cx="958" cy="58" r="1"/>
<circle cx="988" cy="58" r="1"/>
<circle cx="1018" cy="58" r="1"/>
<circle cx="1048" cy="58" r="1"/>
<circle cx="1078" cy="58" r="1"/>
<circle cx="1108" cy="58" r="1"/>
<circle cx="1138" cy="58" r="1"/>
<circle cx="1168" cy="58" r="1"/>
<circle cx="28" cy="88" r="1"/>
<circle cx="58" cy="88" r="1"/>
<circle cx="88" cy="88" r="1"/>
<circle cx="118" cy="88" r="1"/>
<circle cx="148" cy="88" r="1"/>
<circle cx="178" cy="88" r="1"/>
<circle cx="208" cy="88" r="1"/>
<circle cx="238" cy="88" r="1"/>
<circle cx="268" cy="88" r="1"/>
<circle cx="298" cy="88" r="1"/>
<circle cx="328" cy="88" r="1"/>
<circle cx="358" cy="88" r="1"/>
<circle cx="388" cy="88" r="1"/>
<circle cx="418" cy="88" r="1"/>
<circle cx="448" cy="88" r="1"/>
<circle cx="478" cy="88" r="1"/>
<circle cx="508" cy="88" r="1"/>
<circle cx="538" cy="88" r="1"/>
<circle cx="568" cy="88" r="1"/>
<circle cx="598" cy="88" r="1"/>
<circle cx="628" cy="88" r="1"/>
<circle cx="658" cy="88" r="1"/>
<circle cx="688" cy="88" r="1"/>
<circle cx="718" cy="88" r="1"/>
<circle cx="748" cy="88" r="1"/>
<circle cx="778" cy="88" r="1"/>
<circle cx="808" cy="88" r="1"/>
<circle cx="838" cy="88" r="1"/>
<circle cx="868" cy="88" r="1"/>
<circle cx="898" cy="88" r="1"/>
<circle cx="928" cy="88" r="1"/>
<circle cx="958" cy="88" r="1"/>
<circle cx="988" cy="88" r="1"/>
<circle cx="1018" cy="88" r="1"/>
<circle cx="1048" cy="88" r="1"/>
<circle cx="1078" cy="88" r="1"/>
<circle cx="1108" cy="88" r="1"/>
<circle cx="1138" cy="88" r="1"/>
<circle cx="1168" cy="88" r="1"/>
<circle cx="28" cy="118" r="1"/>
<circle cx="58" cy="118" r="1"/>
<circle cx="88" cy="118" r="1"/>
<circle cx="118" cy="118" r="1"/>
<circle cx="148" cy="118" r="1"/>
<circle cx="178" cy="118" r="1"/>
<circle cx="208" cy="118" r="1"/>
<circle cx="238" cy="118" r="1"/>
<circle cx="268" cy="118" r="1"/>
<circle cx="298" cy="118" r="1"/>
<circle cx="328" cy="118" r="1"/>
<circle cx="358" cy="118" r="1"/>
<circle cx="388" cy="118" r="1"/>
<circle cx="418" cy="118" r="1"/>
<circle cx="448" cy="118" r="1"/>
<circle cx="478" cy="118" r="1"/>
<circle cx="508" cy="118" r="1"/>
<circle cx="538" cy="118" r="1"/>
<circle cx="568" cy="118" r="1"/>
<circle cx="598" cy="118" r="1"/>
<circle cx="628" cy="118" r="1"/>
<circle cx="658" cy="118" r="1"/>
<circle cx="688" cy="118" r="1"/>
<circle cx="718" cy="118" r="1"/>
<circle cx="748" cy="118" r="1"/>
<circle cx="778" cy="118" r="1"/>
<circle cx="808" cy="118" r="1"/>
<circle cx="838" cy="118" r="1"/>
<circle cx="868" cy="118" r="1"/>
<circle cx="898" cy="118" r="1"/>
<circle cx="928" cy="118" r="1"/>
<circle cx="958" cy="118" r="1"/>
<circle cx="988" cy="118" r="1"/>
<circle cx="1018" cy="118" r="1"/>
<circle cx="1048" cy="118" r="1"/>
<circle cx="1078" cy="118" r="1"/>
<circle cx="1108" cy="118" r="1"/>
<circle cx="1138" cy="118" r="1"/>
<circle cx="1168" cy="118" r="1"/>
<circle cx="28" cy="148" r="1"/>
<circle cx="58" cy="148" r="1"/>
<circle cx="88" cy="148" r="1"/>
<circle cx="118" cy="148" r="1"/>
<circle cx="148" cy="148" r="1"/>
<circle cx="178" cy="148" r="1"/>
<circle cx="208" cy="148" r="1"/>
<circle cx="238" cy="148" r="1"/>
<circle cx="268" cy="148" r="1"/>
<circle cx="298" cy="148" r="1"/>
<circle cx="328" cy="148" r="1"/>
<circle cx="358" cy="148" r="1"/>
<circle cx="388" cy="148" r="1"/>
<circle cx="418" cy="148" r="1"/>
<circle cx="448" cy="148" r="1"/>
<circle cx="478" cy="148" r="1"/>
<circle cx="508" cy="148" r="1"/>
<circle cx="538" cy="148" r="1"/>
<circle cx="568" cy="148" r="1"/>
<circle cx="598" cy="148" r="1"/>
<circle cx="628" cy="148" r="1"/>
<circle cx="658" cy="148" r="1"/>
<circle cx="688" cy="148" r="1"/>
<circle cx="718" cy="148" r="1"/>
<circle cx="748" cy="148" r="1"/>
<circle cx="778" cy="148" r="1"/>
<circle cx="808" cy="148" r="1"/>
<circle cx="838" cy="148" r="1"/>
<circle cx="868" cy="148" r="1"/>
<circle cx="898" cy="148" r="1"/>
<circle cx="928" cy="148" r="1"/>
<circle cx="958" cy="148" r="1"/>
<circle cx="988" cy="148" r="1"/>
<circle cx="1018" cy="148" r="1"/>
<circle cx="1048" cy="148" r="1"/>
<circle cx="1078" cy="148" r="1"/>
<circle cx="1108" cy="148" r="1"/>
<circle cx="1138" cy="148" r="1"/>
<circle cx="1168" cy="148" r="1"/>
<circle cx="28" cy="178" r="1"/>
<circle cx="58" cy="178" r="1"/>
<circle cx="88" cy="178" r="1"/>
<circle cx="118" cy="178" r="1"/>
<circle cx="148" cy="178" r="1"/>
<circle cx="178" cy="178" r="1"/>
<circle cx="208" cy="178" r="1"/>
<circle cx="238" cy="178" r="1"/>
<circle cx="268" cy="178" r="1"/>
<circle cx="298" cy="178" r="1"/>
<circle cx="328" cy="178" r="1"/>
<circle cx="358" cy="178" r="1"/>
<circle cx="388" cy="178" r="1"/>
<circle cx="418" cy="178" r="1"/>
<circle cx="448" cy="178" r="1"/>
<circle cx="478" cy="178" r="1"/>
<circle cx="508" cy="178" r="1"/>
<circle cx="538" cy="178" r="1"/>
<circle cx="568" cy="178" r="1"/>
<circle cx="598" cy="178" r="1"/>
<circle cx="628" cy="178" r="1"/>
<circle cx="658" cy="178" r="1"/>
<circle cx="688" cy="178" r="1"/>
<circle cx="718" cy="178" r="1"/>
<circle cx="748" cy="178" r="1"/>
<circle cx="778" cy="178" r="1"/>
<circle cx="808" cy="178" r="1"/>
<circle cx="838" cy="178" r="1"/>
<circle cx="868" cy="178" r="1"/>
<circle cx="898" cy="178" r="1"/>
<circle cx="928" cy="178" r="1"/>
<circle cx="958" cy="178" r="1"/>
<circle cx="988" cy="178" r="1"/>
<circle cx="1018" cy="178" r="1"/>
<circle cx="1048" cy="178" r="1"/>
<circle cx="1078" cy="178" r="1"/>
<circle cx="1108" cy="178" r="1"/>
<circle cx="1138" cy="178" r="1"/>
<circle cx="1168" cy="178" r="1"/>
<circle cx="28" cy="208" r="1"/>
<circle cx="58" cy="208" r="1"/>
<circle cx="88" cy="208" r="1"/>
<circle cx="118" cy="208" r="1"/>
<circle cx="148" cy="208" r="1"/>
<circle cx="178" cy="208" r="1"/>
<circle cx="208" cy="208" r="1"/>
<circle cx="238" cy="208" r="1"/>
<circle cx="268" cy="208" r="1"/>
<circle cx="298" cy="208" r="1"/>
<circle cx="328" cy="208" r="1"/>
<circle cx="358" cy="208" r="1"/>
<circle cx="388" cy="208" r="1"/>
<circle cx="418" cy="208" r="1"/>
<circle cx="448" cy="208" r="1"/>
<circle cx="478" cy="208" r="1"/>
<circle cx="508" cy="208" r="1"/>
<circle cx="538" cy="208" r="1"/>
<circle cx="568" cy="208" r="1"/>
<circle cx="598" cy="208" r="1"/>
<circle cx="628" cy="208" r="1"/>
<circle cx="658" cy="208" r="1"/>
<circle cx="688" cy="208" r="1"/>
<circle cx="718" cy="208" r="1"/>
<circle cx="748" cy="208" r="1"/>
<circle cx="778" cy="208" r="1"/>
<circle cx="808" cy="208" r="1"/>
<circle cx="838" cy="208" r="1"/>
<circle cx="868" cy="208" r="1"/>
<circle cx="898" cy="208" r="1"/>
<circle cx="928" cy="208" r="1"/>
<circle cx="958" cy="208" r="1"/>
<circle cx="988" cy="208" r="1"/>
<circle cx="1018" cy="208" r="1"/>
<circle cx="1048" cy="208" r="1"/>
<circle cx="1078" cy="208" r="1"/>
<circle cx="1108" cy="208" r="1"/>
<circle cx="1138" cy="208" r="1"/>
<circle cx="1168" cy="208" r="1"/>
<circle cx="28" cy="238" r="1"/>
<circle cx="58" cy="238" r="1"/>
<circle cx="88" cy="238" r="1"/>
<circle cx="118" cy="238" r="1"/>
<circle cx="148" cy="238" r="1"/>
<circle cx="178" cy="238" r="1"/>
<circle cx="208" cy="238" r="1"/>
<circle cx="238" cy="238" r="1"/>
<circle cx="268" cy="238" r="1"/>
<circle cx="298" cy="238" r="1"/>
<circle cx="328" cy="238" r="1"/>
<circle cx="358" cy="238" r="1"/>
<circle cx="388" cy="238" r="1"/>
<circle cx="418" cy="238" r="1"/>
<circle cx="448" cy="238" r="1"/>
<circle cx="478" cy="238" r="1"/>
<circle cx="508" cy="238" r="1"/>
<circle cx="538" cy="238" r="1"/>
<circle cx="568" cy="238" r="1"/>
<circle cx="598" cy="238" r="1"/>
<circle cx="628" cy="238" r="1"/>
<circle cx="658" cy="238" r="1"/>
<circle cx="688" cy="238" r="1"/>
<circle cx="718" cy="238" r="1"/>
<circle cx="748" cy="238" r="1"/>
<circle cx="778" cy="238" r="1"/>
<circle cx="808" cy="238" r="1"/>
<circle cx="838" cy="238" r="1"/>
<circle cx="868" cy="238" r="1"/>
<circle cx="898" cy="238" r="1"/>
<circle cx="928" cy="238" r="1"/>
<circle cx="958" cy="238" r="1"/>
<circle cx="988" cy="238" r="1"/>
<circle cx="1018" cy="238" r="1"/>
<circle cx="1048" cy="238" r="1"/>
<circle cx="1078" cy="238" r="1"/>
<circle cx="1108" cy="238" r="1"/>
<circle cx="1138" cy="238" r="1"/>
<circle cx="1168" cy="238" r="1"/>
<circle cx="28" cy="268" r="1"/>
<circle cx="58" cy="268" r="1"/>
<circle cx="88" cy="268" r="1"/>
<circle cx="118" cy="268" r="1"/>
<circle cx="148" cy="268" r="1"/>
<circle cx="178" cy="268" r="1"/>
<circle cx="208" cy="268" r="1"/>
<circle cx="238" cy="268" r="1"/>
<circle cx="268" cy="268" r="1"/>
<circle cx="298" cy="268" r="1"/>
<circle cx="328" cy="268" r="1"/>
<circle cx="358" cy="268" r="1"/>
<circle cx="388" cy="268" r="1"/>
<circle cx="418" cy="268" r="1"/>
<circle cx="448" cy="268" r="1"/>
<circle cx="478" cy="268" r="1"/>
<circle cx="508" cy="268" r="1"/>
<circle cx="538" cy="268" r="1"/>
<circle cx="568" cy="268" r="1"/>
<circle cx="598" cy="268" r="1"/>
<circle cx="628" cy="268" r="1"/>
<circle cx="658" cy="268" r="1"/>
<circle cx="688" cy="268" r="1"/>
<circle cx="718" cy="268" r="1"/>
<circle cx="748" cy="268" r="1"/>
<circle cx="778" cy="268" r="1"/>
<circle cx="808" cy="268" r="1"/>
<circle cx="838" cy="268" r="1"/>
<circle cx="868" cy="268" r="1"/>
<circle cx="898" cy="268" r="1"/>
<circle cx="928" cy="268" r="1"/>
<circle cx="958" cy="268" r="1"/>
<circle cx="988" cy="268" r="1"/>
<circle cx="1018" cy="268" r="1"/>
<circle cx="1048" cy="268" r="1"/>
<circle cx="1078" cy="268" r="1"/>
<circle cx="1108" cy="268" r="1"/>
<circle cx="1138" cy="268" r="1"/>
<circle cx="1168" cy="268" r="1"/>
<circle cx="28" cy="298" r="1"/>
<circle cx="58" cy="298" r="1"/>
<circle cx="88" cy="298" r="1"/>
<circle cx="118" cy="298" r="1"/>
<circle cx="148" cy="298" r="1"/>
<circle cx="178" cy="298" r="1"/>
<circle cx="208" cy="298" r="1"/>
<circle cx="238" cy="298" r="1"/>
<circle cx="268" cy="298" r="1"/>
<circle cx="298" cy="298" r="1"/>
<circle cx="328" cy="298" r="1"/>
<circle cx="358" cy="298" r="1"/>
<circle cx="388" cy="298" r="1"/>
<circle cx="418" cy="298" r="1"/>
<circle cx="448" cy="298" r="1"/>
<circle cx="478" cy="298" r="1"/>
<circle cx="508" cy="298" r="1"/>
<circle cx="538" cy="298" r="1"/>
<circle cx="568" cy="298" r="1"/>
<circle cx="598" cy="298" r="1"/>
<circle cx="628" cy="298" r="1"/>
<circle cx="658" cy="298" r="1"/>
<circle cx="688" cy="298" r="1"/>
<circle cx="718" cy="298" r="1"/>
<circle cx="748" cy="298" r="1"/>
<circle cx="778" cy="298" r="1"/>
<circle cx="808" cy="298" r="1"/>
<circle cx="838" cy="298" r="1"/>
<circle cx="868" cy="298" r="1"/>
<circle cx="898" cy="298" r="1"/>
<circle cx="928" cy="298" r="1"/>
<circle cx="958" cy="298" r="1"/>
<circle cx="988" cy="298" r="1"/>
<circle cx="1018" cy="298" r="1"/>
<circle cx="1048" cy="298" r="1"/>
<circle cx="1078" cy="298" r="1"/>
<circle cx="1108" cy="298" r="1"/>
<circle cx="1138" cy="298" r="1"/>
<circle cx="1168" cy="298" r="1"/>
<circle cx="28" cy="328" r="1"/>
<circle cx="58" cy="328" r="1"/>
<circle cx="88" cy="328" r="1"/>
<circle cx="118" cy="328" r="1"/>
<circle cx="148" cy="328" r="1"/>
<circle cx="178" cy="328" r="1"/>
<circle cx="208" cy="328" r="1"/>
<circle cx="238" cy="328" r="1"/>
<circle cx="268" cy="328" r="1"/>
<circle cx="298" cy="328" r="1"/>
<circle cx="328" cy="328" r="1"/>
<circle cx="358" cy="328" r="1"/>
<circle cx="388" cy="328" r="1"/>
<circle cx="418" cy="328" r="1"/>
<circle cx="448" cy="328" r="1"/>
<circle cx="478" cy="328" r="1"/>
<circle cx="508" cy="328" r="1"/>
<circle cx="538" cy="328" r="1"/>
<circle cx="568" cy="328" r="1"/>
<circle cx="598" cy="328" r="1"/>
<circle cx="628" cy="328" r="1"/>
<circle cx="658" cy="328" r="1"/>
<circle cx="688" cy="328" r="1"/>
<circle cx="718" cy="328" r="1"/>
<circle cx="748" cy="328" r="1"/>
<circle cx="778" cy="328" r="1"/>
<circle cx="808" cy="328" r="1"/>
<circle cx="838" cy="328" r="1"/>
<circle cx="868" cy="328" r="1"/>
<circle cx="898" cy="328" r="1"/>
<circle cx="928" cy="328" r="1"/>
<circle cx="958" cy="328" r="1"/>
<circle cx="988" cy="328" r="1"/>
<circle cx="1018" cy="328" r="1"/>
<circle cx="1048" cy="328" r="1"/>
<circle cx="1078" cy="328" r="1"/>
<circle cx="1108" cy="328" r="1"/>
<circle cx="1138" cy="328" r="1"/>
<circle cx="1168" cy="328" r="1"/>
<circle cx="28" cy="358" r="1"/>
<circle cx="58" cy="358" r="1"/>
<circle cx="88" cy="358" r="1"/>
<circle cx="118" cy="358" r="1"/>
<circle cx="148" cy="358" r="1"/>
<circle cx="178" cy="358" r="1"/>
<circle cx="208" cy="358" r="1"/>
<circle cx="238" cy="358" r="1"/>
<circle cx="268" cy="358" r="1"/>
<circle cx="298" cy="358" r="1"/>
<circle cx="328" cy="358" r="1"/>
<circle cx="358" cy="358" r="1"/>
<circle cx="388" cy="358" r="1"/>
<circle cx="418" cy="358" r="1"/>
<circle cx="448" cy="358" r="1"/>
<circle cx="478" cy="358" r="1"/>
<circle cx="508" cy="358" r="1"/>
<circle cx="538" cy="358" r="1"/>
<circle cx="568" cy="358" r="1"/>
<circle cx="598" cy="358" r="1"/>
<circle cx="628" cy="358" r="1"/>
<circle cx="658" cy="358" r="1"/>
<circle cx="688" cy="358" r="1"/>
<circle cx="718" cy="358" r="1"/>
<circle cx="748" cy="358" r="1"/>
<circle cx="778" cy="358" r="1"/>
<circle cx="808" cy="358" r="1"/>
<circle cx="838" cy="358" r="1"/>
<circle cx="868" cy="358" r="1"/>
<circle cx="898" cy="358" r="1"/>
<circle cx="928" cy="358" r="1"/>
<circle cx="958" cy="358" r="1"/>
<circle cx="988" cy="358" r="1"/>
<circle cx="1018" cy="358" r="1"/>
<circle cx="1048" cy="358" r="1"/>
<circle cx="1078" cy="358" r="1"/>
<circle cx="1108" cy="358" r="1"/>
<circle cx="1138" cy="358" r="1"/>
<circle cx="1168" cy="358" r="1"/>
<circle cx="28" cy="388" r="1"/>
<circle cx="58" cy="388" r="1"/>
<circle cx="88" cy="388" r="1"/>
<circle cx="118" cy="388" r="1"/>
<circle cx="148" cy="388" r="1"/>
<circle cx="178" cy="388" r="1"/>
<circle cx="208" cy="388" r="1"/>
<circle cx="238" cy="388" r="1"/>
<circle cx="268" cy="388" r="1"/>
<circle cx="298" cy="388" r="1"/>
<circle cx="328" cy="388" r="1"/>
<circle cx="358" cy="388" r="1"/>
<circle cx="388" cy="388" r="1"/>
<circle cx="418" cy="388" r="1"/>
<circle cx="448" cy="388" r="1"/>
<circle cx="478" cy="388" r="1"/>
<circle cx="508" cy="388" r="1"/>
<circle cx="538" cy="388" r="1"/>
<circle cx="568" cy="388" r="1"/>
<circle cx="598" cy="388" r="1"/>
<circle cx="628" cy="388" r="1"/>
<circle cx="658" cy="388" r="1"/>
<circle cx="688" cy="388" r="1"/>
<circle cx="718" cy="388" r="1"/>
<circle cx="748" cy="388" r="1"/>
<circle cx="778" cy="388" r="1"/>
<circle cx="808" cy="388" r="1"/>
<circle cx="838" cy="388" r="1"/>
<circle cx="868" cy="388" r="1"/>
<circle cx="898" cy="388" r="1"/>
<circle cx="928" cy="388" r="1"/>
<circle cx="958" cy="388" r="1"/>
<circle cx="988" cy="388" r="1"/>
<circle cx="1018" cy="388" r="1"/>
<circle cx="1048" cy="388" r="1"/>
<circle cx="1078" cy="388" r="1"/>
<circle cx="1108" cy="388" r="1"/>
<circle cx="1138" cy="388" r="1"/>
<circle cx="1168" cy="388" r="1"/>
<circle cx="28" cy="418" r="1"/>
<circle cx="58" cy="418" r="1"/>
<circle cx="88" cy="418" r="1"/>
<circle cx="118" cy="418" r="1"/>
<circle cx="148" cy="418" r="1"/>
<circle cx="178" cy="418" r="1"/>
<circle cx="208" cy="418" r="1"/>
<circle cx="238" cy="418" r="1"/>
<circle cx="268" cy="418" r="1"/>
<circle cx="298" cy="418" r="1"/>
<circle cx="328" cy="418" r="1"/>
<circle cx="358" cy="418" r="1"/>
<circle cx="388" cy="418" r="1"/>
<circle cx="418" cy="418" r="1"/>
<circle cx="448" cy="418" r="1"/>
<circle cx="478" cy="418" r="1"/>
<circle cx="508" cy="418" r="1"/>
<circle cx="538" cy="418" r="1"/>
<circle cx="568" cy="418" r="1"/>
<circle cx="598" cy="418" r="1"/>
<circle cx="628" cy="418" r="1"/>
<circle cx="658" cy="418" r="1"/>
<circle cx="688" cy="418" r="1"/>
<circle cx="718" cy="418" r="1"/>
<circle cx="748" cy="418" r="1"/>
<circle cx="778" cy="418" r="1"/>
<circle cx="808" cy="418" r="1"/>
<circle cx="838" cy="418" r="1"/>
<circle cx="868" cy="418" r="1"/>
<circle cx="898" cy="418" r="1"/>
<circle cx="928" cy="418" r="1"/>
<circle cx="958" cy="418" r="1"/>
<circle cx="988" cy="418" r="1"/>
<circle cx="1018" cy="418" r="1"/>
<circle cx="1048" cy="418" r="1"/>
<circle cx="1078" cy="418" r="1"/>
<circle cx="1108" cy="418" r="1"/>
<circle cx="1138" cy="418" r="1"/>
<circle cx="1168" cy="418" r="1"/>
</g>
<circle cx="250" cy="450" r="1.6" fill="#FB7185" opacity="0"><animateTransform attributeName="transform" type="translate" values="0 0;0 -480" dur="13s" begin="0s" repeatCount="indefinite"/><animate attributeName="opacity" values="0;0.55;0" dur="13s" begin="0s" repeatCount="indefinite"/></circle>
<circle cx="520" cy="450" r="1.6" fill="#FB7185" opacity="0"><animateTransform attributeName="transform" type="translate" values="0 0;0 -480" dur="16s" begin="-2s" repeatCount="indefinite"/><animate attributeName="opacity" values="0;0.55;0" dur="16s" begin="-2s" repeatCount="indefinite"/></circle>
<circle cx="760" cy="450" r="1.6" fill="#FB7185" opacity="0"><animateTransform attributeName="transform" type="translate" values="0 0;0 -480" dur="12s" begin="-4s" repeatCount="indefinite"/><animate attributeName="opacity" values="0;0.55;0" dur="12s" begin="-4s" repeatCount="indefinite"/></circle>
<circle cx="1000" cy="450" r="1.6" fill="#FB7185" opacity="0"><animateTransform attributeName="transform" type="translate" values="0 0;0 -480" dur="15s" begin="-6s" repeatCount="indefinite"/><animate attributeName="opacity" values="0;0.55;0" dur="15s" begin="-6s" repeatCount="indefinite"/></circle>
<circle cx="180" cy="450" r="1.6" fill="#FB7185" opacity="0"><animateTransform attributeName="transform" type="translate" values="0 0;0 -480" dur="17s" begin="-8s" repeatCount="indefinite"/><animate attributeName="opacity" values="0;0.55;0" dur="17s" begin="-8s" repeatCount="indefinite"/></circle>
<circle cx="640" cy="450" r="1.6" fill="#FB7185" opacity="0"><animateTransform attributeName="transform" type="translate" values="0 0;0 -480" dur="14s" begin="-10s" repeatCount="indefinite"/><animate attributeName="opacity" values="0;0.55;0" dur="14s" begin="-10s" repeatCount="indefinite"/></circle>
<rect width="1180" height="440" filter="url(#grain)" opacity="0.03"/>
</g>
<rect x="1" y="1" width="1178" height="438" rx="26" fill="none" stroke="rgba(255,255,255,0.08)" stroke-width="1.2"/>
<rect x="1" y="1" width="1178" height="438" rx="26" fill="none" stroke="url(#shim)" stroke-width="1.4" opacity="0.85"/>
<g><animateTransform attributeName="transform" type="translate" values="0 -6;0 6;0 -6" dur="7s" repeatCount="indefinite"/>
<circle cx="930" cy="208" r="150" fill="url(#orbGlow)" filter="url(#blur2)"><animate attributeName="opacity" values="0.7;1;0.7" dur="6s" repeatCount="indefinite"/></circle>
<g transform="rotate(-20 930 208)"><ellipse cx="930" cy="208" rx="168" ry="58" fill="none" stroke="#FB7185" stroke-opacity="0.5" stroke-width="1.1"/><circle cx="1098" cy="208" r="3.5" fill="#F5A742"><animateMotion dur="26s" repeatCount="indefinite" path="M 168 0 A 168 58 0 1 1 -168 0 A 168 58 0 1 1 168 0"/></circle></g>
<g transform="rotate(0 930 208)"><ellipse cx="930" cy="208" rx="150" ry="150" fill="none" stroke="#FB7185" stroke-opacity="0.28" stroke-width="1.1"/><circle cx="1080" cy="208" r="3.5" fill="#F5A742"><animateMotion dur="60s" repeatCount="indefinite" path="M 150 0 A 150 150 0 1 1 -150 0 A 150 150 0 1 1 150 0"/></circle></g>
<circle cx="930" cy="208" r="112" fill="url(#orb)" opacity="0.9"><animate attributeName="r" values="112;116;112" dur="6s" repeatCount="indefinite"/></circle>
<circle cx="930" cy="208" r="112" fill="url(#hi)"/>
<circle cx="930" cy="208" r="112" fill="none" stroke="#ffffff" stroke-opacity="0.12" stroke-width="1"/>
<circle cx="930" cy="208" r="112" fill="#000000" opacity="0.0"/>
</g>
<text x="64" y="78" font-family="'JetBrains Mono','SF Mono','Cascadia Code',ui-monospace,Menlo,Consolas,monospace" font-size="13.5" opacity="0"><tspan fill="#34D399">kac0@kali</tspan><tspan fill="#5C6982">:</tspan><tspan fill="#FB7185">~</tspan><tspan fill="#5C6982">$ </tspan><tspan fill="#93A0B4">whoami</tspan><animate attributeName="opacity" values="0;1" dur="0.4s" begin="0.2s" fill="freeze"/></text>
<text x="64" y="132" font-family="'Inter','SF Pro Display',-apple-system,'Segoe UI',Roboto,Helvetica,Arial,sans-serif" font-size="46" font-weight="800" letter-spacing="-1" fill="#F3F6FB" opacity="0">Marco Alfan<animate attributeName="opacity" values="0;1" dur="0.55s" begin="0.45s" fill="freeze"/><animateTransform attributeName="transform" type="translate" values="0 10;0 0" dur="0.55s" begin="0.45s" fill="freeze"/></text>
<text x="336" y="132" font-family="'JetBrains Mono','SF Mono','Cascadia Code',ui-monospace,Menlo,Consolas,monospace" font-size="15" fill="#5C6982" opacity="0">@kac0<animate attributeName="opacity" values="0;0.9" dur="0.5s" begin="0.75s" fill="freeze"/></text>
<rect x="64" y="146" height="3" rx="1.5" width="0" fill="url(#acc)"><animate attributeName="width" values="0;196" dur="0.7s" begin="0.7s" fill="freeze" calcMode="spline" keySplines="0.2 0 0 1"/></rect>
<text x="64" y="186" font-family="'JetBrains Mono','SF Mono','Cascadia Code',ui-monospace,Menlo,Consolas,monospace" font-size="17" fill="#FB7185">&#9656;</text>
<clipPath id="rc0"><rect x="86" y="170" height="22" width="0"><animate attributeName="width" values="0.0;288.9;288.9;0.0;0.0" keyTimes="0.0000;0.0667;0.1733;0.1867;1.0000" dur="15.0s" repeatCount="indefinite"/></rect></clipPath>
<g clip-path="url(#rc0)"><text x="86" y="186" font-family="'JetBrains Mono','SF Mono','Cascadia Code',ui-monospace,Menlo,Consolas,monospace" font-size="17" font-weight="500" fill="#F3F6FB">Offensive Security Engineer</text><rect x="375" y="172" width="10" height="18" fill="#F5A742"><animate attributeName="opacity" values="1;1;0;0;1" dur="1s" repeatCount="indefinite"/></rect></g>
<clipPath id="rc1"><rect x="86" y="170" height="22" width="0"><animate attributeName="width" values="0.0;0.0;192.6;192.6;0.0;0.0" keyTimes="0.0000;0.2000;0.2667;0.3733;0.3867;1.0000" dur="15.0s" repeatCount="indefinite"/></rect></clipPath>
<g clip-path="url(#rc1)"><text x="86" y="186" font-family="'JetBrains Mono','SF Mono','Cascadia Code',ui-monospace,Menlo,Consolas,monospace" font-size="17" font-weight="500" fill="#F3F6FB">Penetration Tester</text><rect x="279" y="172" width="10" height="18" fill="#F5A742"><animate attributeName="opacity" values="1;1;0;0;1" dur="1s" repeatCount="indefinite"/></rect></g>
<clipPath id="rc2"><rect x="86" y="170" height="22" width="0"><animate attributeName="width" values="0.0;0.0;181.9;181.9;0.0;0.0" keyTimes="0.0000;0.4000;0.4667;0.5733;0.5867;1.0000" dur="15.0s" repeatCount="indefinite"/></rect></clipPath>
<g clip-path="url(#rc2)"><text x="86" y="186" font-family="'JetBrains Mono','SF Mono','Cascadia Code',ui-monospace,Menlo,Consolas,monospace" font-size="17" font-weight="500" fill="#F3F6FB">Red Team Operator</text><rect x="268" y="172" width="10" height="18" fill="#F5A742"><animate attributeName="opacity" values="1;1;0;0;1" dur="1s" repeatCount="indefinite"/></rect></g>
<clipPath id="rc3"><rect x="86" y="170" height="22" width="0"><animate attributeName="width" values="0.0;0.0;288.9;288.9;0.0;0.0" keyTimes="0.0000;0.6000;0.6667;0.7733;0.7867;1.0000" dur="15.0s" repeatCount="indefinite"/></rect></clipPath>
<g clip-path="url(#rc3)"><text x="86" y="186" font-family="'JetBrains Mono','SF Mono','Cascadia Code',ui-monospace,Menlo,Consolas,monospace" font-size="17" font-weight="500" fill="#F3F6FB">Threat Intelligence Analyst</text><rect x="375" y="172" width="10" height="18" fill="#F5A742"><animate attributeName="opacity" values="1;1;0;0;1" dur="1s" repeatCount="indefinite"/></rect></g>
<clipPath id="rc4"><rect x="86" y="170" height="22" width="0"><animate attributeName="width" values="0.0;0.0;171.2;171.2;0.0;0.0" keyTimes="0.0000;0.8000;0.8667;0.9733;0.9867;1.0000" dur="15.0s" repeatCount="indefinite"/></rect></clipPath>
<g clip-path="url(#rc4)"><text x="86" y="186" font-family="'JetBrains Mono','SF Mono','Cascadia Code',ui-monospace,Menlo,Consolas,monospace" font-size="17" font-weight="500" fill="#F3F6FB">Mentor &amp; Trainer</text><rect x="257" y="172" width="10" height="18" fill="#F5A742"><animate attributeName="opacity" values="1;1;0;0;1" dur="1s" repeatCount="indefinite"/></rect></g>
<text x="64" y="224" font-family="'Inter','SF Pro Display',-apple-system,'Segoe UI',Roboto,Helvetica,Arial,sans-serif" font-size="15" fill="#93A0B4" opacity="0">I help teams find and fix security gaps before adversaries do.<animate attributeName="opacity" values="0;1" dur="0.5s" begin="1.0s" fill="freeze"/></text>
<text x="64" y="248" font-family="'Inter','SF Pro Display',-apple-system,'Segoe UI',Roboto,Helvetica,Arial,sans-serif" font-size="15" fill="#93A0B4" opacity="0">Pentesting · Red teaming · Threat intelligence · Mentoring.<animate attributeName="opacity" values="0;1" dur="0.5s" begin="1.2s" fill="freeze"/></text>
<g opacity="0"><animate attributeName="opacity" values="0;1" dur="0.45s" begin="1.4s" fill="freeze"/><animateTransform attributeName="transform" type="translate" values="0 6;0 0" dur="0.45s" begin="1.4s" fill="freeze"/><rect x="64" y="290" width="105" height="29" rx="8" fill="rgba(255,255,255,0.045)" stroke="rgba(255,255,255,0.11)" stroke-width="1"/><circle cx="77" cy="304.5" r="2.4" fill="url(#acc)"><animate attributeName="opacity" values="1;0.45;1" dur="3s" begin="0.0s" repeatCount="indefinite"/></circle><text x="88" y="309" font-family="'JetBrains Mono','SF Mono','Cascadia Code',ui-monospace,Menlo,Consolas,monospace" font-size="12.5" fill="#93A0B4">Red Teaming</text></g>
<g opacity="0"><animate attributeName="opacity" values="0;1" dur="0.45s" begin="1.5s" fill="freeze"/><animateTransform attributeName="transform" type="translate" values="0 6;0 0" dur="0.45s" begin="1.5s" fill="freeze"/><rect x="177.7" y="290" width="97" height="29" rx="8" fill="rgba(255,255,255,0.045)" stroke="rgba(255,255,255,0.11)" stroke-width="1"/><circle cx="190.7" cy="304.5" r="2.4" fill="url(#acc)"><animate attributeName="opacity" values="1;0.45;1" dur="3s" begin="-0.35s" repeatCount="indefinite"/></circle><text x="201.7" y="309" font-family="'JetBrains Mono','SF Mono','Cascadia Code',ui-monospace,Menlo,Consolas,monospace" font-size="12.5" fill="#93A0B4">Pentesting</text></g>
<g opacity="0"><animate attributeName="opacity" values="0;1" dur="0.45s" begin="1.5999999999999999s" fill="freeze"/><animateTransform attributeName="transform" type="translate" values="0 6;0 0" dur="0.45s" begin="1.5999999999999999s" fill="freeze"/><rect x="283.7" y="290" width="112" height="29" rx="8" fill="rgba(255,255,255,0.045)" stroke="rgba(255,255,255,0.11)" stroke-width="1"/><circle cx="296.7" cy="304.5" r="2.4" fill="url(#acc)"><animate attributeName="opacity" values="1;0.45;1" dur="3s" begin="-0.7s" repeatCount="indefinite"/></circle><text x="307.7" y="309" font-family="'JetBrains Mono','SF Mono','Cascadia Code',ui-monospace,Menlo,Consolas,monospace" font-size="12.5" fill="#93A0B4">Threat Intel</text></g>
<g opacity="0"><animate attributeName="opacity" values="0;1" dur="0.45s" begin="1.7s" fill="freeze"/><animateTransform attributeName="transform" type="translate" values="0 6;0 0" dur="0.45s" begin="1.7s" fill="freeze"/><rect x="405.1" y="290" width="58" height="29" rx="8" fill="rgba(255,255,255,0.045)" stroke="rgba(255,255,255,0.11)" stroke-width="1"/><circle cx="418.1" cy="304.5" r="2.4" fill="url(#acc)"><animate attributeName="opacity" values="1;0.45;1" dur="3s" begin="-1.0499999999999998s" repeatCount="indefinite"/></circle><text x="429.1" y="309" font-family="'JetBrains Mono','SF Mono','Cascadia Code',ui-monospace,Menlo,Consolas,monospace" font-size="12.5" fill="#93A0B4">OSINT</text></g>
<g opacity="0"><animate attributeName="opacity" values="0;1" dur="0.45s" begin="1.7999999999999998s" fill="freeze"/><animateTransform attributeName="transform" type="translate" values="0 6;0 0" dur="0.45s" begin="1.7999999999999998s" fill="freeze"/><rect x="64" y="328" width="112" height="29" rx="8" fill="rgba(255,255,255,0.045)" stroke="rgba(255,255,255,0.11)" stroke-width="1"/><circle cx="77" cy="342.5" r="2.4" fill="url(#acc)"><animate attributeName="opacity" values="1;0.45;1" dur="3s" begin="-1.4s" repeatCount="indefinite"/></circle><text x="88" y="347" font-family="'JetBrains Mono','SF Mono','Cascadia Code',ui-monospace,Menlo,Consolas,monospace" font-size="12.5" fill="#93A0B4">MITRE ATT&amp;CK</text></g>
<g opacity="0"><animate attributeName="opacity" values="0;1" dur="0.45s" begin="1.9s" fill="freeze"/><animateTransform attributeName="transform" type="translate" values="0 6;0 0" dur="0.45s" begin="1.9s" fill="freeze"/><rect x="185.4" y="328" width="66" height="29" rx="8" fill="rgba(255,255,255,0.045)" stroke="rgba(255,255,255,0.11)" stroke-width="1"/><circle cx="198.4" cy="342.5" r="2.4" fill="url(#acc)"><animate attributeName="opacity" values="1;0.45;1" dur="3s" begin="-1.75s" repeatCount="indefinite"/></circle><text x="209.4" y="347" font-family="'JetBrains Mono','SF Mono','Cascadia Code',ui-monospace,Menlo,Consolas,monospace" font-size="12.5" fill="#93A0B4">Python</text></g>
<g opacity="0"><animate attributeName="opacity" values="0;1" dur="0.45s" begin="2.0s" fill="freeze"/><animateTransform attributeName="transform" type="translate" values="0 6;0 0" dur="0.45s" begin="2.0s" fill="freeze"/><rect x="260.6" y="328" width="97" height="29" rx="8" fill="rgba(255,255,255,0.045)" stroke="rgba(255,255,255,0.11)" stroke-width="1"/><circle cx="273.6" cy="342.5" r="2.4" fill="url(#acc)"><animate attributeName="opacity" values="1;0.45;1" dur="3s" begin="-2.0999999999999996s" repeatCount="indefinite"/></circle><text x="284.6" y="347" font-family="'JetBrains Mono','SF Mono','Cascadia Code',ui-monospace,Menlo,Consolas,monospace" font-size="12.5" fill="#93A0B4">Burp Suite</text></g>
<g opacity="0"><animate attributeName="opacity" values="0;1" dur="0.45s" begin="2.1s" fill="freeze"/><animateTransform attributeName="transform" type="translate" values="0 6;0 0" dur="0.45s" begin="2.1s" fill="freeze"/><rect x="366.6" y="328" width="51" height="29" rx="8" fill="rgba(255,255,255,0.045)" stroke="rgba(255,255,255,0.11)" stroke-width="1"/><circle cx="379.6" cy="342.5" r="2.4" fill="url(#acc)"><animate attributeName="opacity" values="1;0.45;1" dur="3s" begin="-2.4499999999999997s" repeatCount="indefinite"/></circle><text x="390.6" y="347" font-family="'JetBrains Mono','SF Mono','Cascadia Code',ui-monospace,Menlo,Consolas,monospace" font-size="12.5" fill="#93A0B4">Nmap</text></g>
<g transform="translate(64,392)" opacity="0"><animate attributeName="opacity" values="0;1" dur="0.5s" begin="2.0s" fill="freeze"/><g transform="scale(0.8)" fill="#93A0B4"><path d="M11 0C4.9 0 0 5 0 11.2c0 4.9 3.2 9.1 7.6 10.6.6.1.8-.2.8-.5v-1.9c-3.1.7-3.8-1.5-3.8-1.5-.5-1.3-1.2-1.7-1.2-1.7-1-.7.1-.7.1-.7 1.1.1 1.7 1.2 1.7 1.2 1 1.7 2.6 1.2 3.3.9.1-.7.4-1.2.7-1.5-2.5-.3-5.1-1.3-5.1-5.6 0-1.2.4-2.2 1.1-3-.1-.3-.5-1.4.1-3 0 0 .9-.3 3 1.1a10.4 10.4 0 015.6 0c2.1-1.4 3-1.1 3-1.1.6 1.6.2 2.7.1 3 .7.8 1.1 1.8 1.1 3 0 4.3-2.6 5.3-5.1 5.6.4.4.8 1.1.8 2.2v3.3c0 .3.2.6.8.5 4.4-1.5 7.6-5.7 7.6-10.6C22.4 5 17.5 0 11 0z"/></g><text x="26" y="14" font-family="'JetBrains Mono','SF Mono','Cascadia Code',ui-monospace,Menlo,Consolas,monospace" font-size="12.5" fill="#93A0B4">marcoalfans</text></g>
<g transform="translate(201.2,392)" opacity="0"><animate attributeName="opacity" values="0;1" dur="0.5s" begin="2.0s" fill="freeze"/><g transform="scale(0.8)" fill="#93A0B4"><path d="M1.6 7.3h4v14h-4zM3.6 1a2.3 2.3 0 100 4.6 2.3 2.3 0 000-4.6zM8.5 7.3h3.8v1.9h.1c.5-1 1.8-2.1 3.8-2.1 4 0 4.8 2.6 4.8 6.1v8.1h-4v-7.2c0-1.7 0-3.9-2.4-3.9s-2.7 1.9-2.7 3.8v7.3h-4z"/></g><text x="26" y="14" font-family="'JetBrains Mono','SF Mono','Cascadia Code',ui-monospace,Menlo,Consolas,monospace" font-size="12.5" fill="#93A0B4">in/marcoalfans</text></g>
<g transform="translate(360.0,392)" opacity="0"><animate attributeName="opacity" values="0;1" dur="0.5s" begin="2.0s" fill="freeze"/><g transform="scale(0.8)" fill="none" stroke="#93A0B4"><path d="M11 .6l9 5.2v10.4l-9 5.2-9-5.2V5.8z" fill="none" stroke-width="1.5"/><path d="M11 5l5.2 3v6L11 17l-5.2-3V8z" fill="none" stroke-width="1.3"/></g><text x="26" y="14" font-family="'JetBrains Mono','SF Mono','Cascadia Code',ui-monospace,Menlo,Consolas,monospace" font-size="12.5" fill="#93A0B4">HackTheBox</text></g>
<g transform="translate(490.0,392)" opacity="0"><animate attributeName="opacity" values="0;1" dur="0.5s" begin="2.0s" fill="freeze"/><g transform="scale(0.8)" fill="none" stroke="#93A0B4"><circle cx="11" cy="11" r="10.2" fill="none" stroke-width="1.4"/><ellipse cx="11" cy="11" rx="4.2" ry="10.2" fill="none" stroke-width="1.2"/><line x1="0.8" y1="11" x2="21.2" y2="11" stroke-width="1.2"/></g><text x="26" y="14" font-family="'JetBrains Mono','SF Mono','Cascadia Code',ui-monospace,Menlo,Consolas,monospace" font-size="12.5" fill="#93A0B4">marcoalfans.github.io</text></g>
</svg>
