<svg xmlns="http://www.w3.org/2000/svg" width="1180" height="440" viewBox="0 0 1180 440" fill="none" font-family="'Inter','SF Pro Display',-apple-system,'Segoe UI',Roboto,Helvetica,Arial,sans-serif">
<defs>
  <linearGradient id="acc" x1="0" y1="0" x2="1" y2="0">
    <stop offset="0" stop-color="#F43F5E"><animate attributeName="stop-color" values="#F43F5E;#FB7185;#F5A742;#F43F5E" dur="10s" repeatCount="indefinite"/></stop>
    <stop offset="1" stop-color="#F5A742"><animate attributeName="stop-color" values="#F5A742;#F43F5E;#FB7185;#F5A742" dur="10s" repeatCount="indefinite"/></stop>
  </linearGradient>
  <linearGradient id="shim" x1="0" y1="0" x2="1" y2="0">
    <stop offset="0" stop-color="#FB7185" stop-opacity="0"/><stop offset="0.5" stop-color="#FB7185" stop-opacity="0.85"/><stop offset="1" stop-color="#F5A742" stop-opacity="0"/>
    <animateTransform attributeName="gradientTransform" type="translate" values="-1 0;1 0" dur="5s" repeatCount="indefinite"/>
  </linearGradient>
  <radialGradient id="orb" cx="0.4" cy="0.36" r="0.72">
    <stop offset="0" stop-color="#E7A8B0"/><stop offset="0.5" stop-color="#B4576A"/><stop offset="1" stop-color="#54212F"/>
    <animate attributeName="cx" values="0.4;0.48;0.4" dur="9s" repeatCount="indefinite"/>
    <animate attributeName="cy" values="0.36;0.44;0.36" dur="9s" repeatCount="indefinite"/>
  </radialGradient>
  <radialGradient id="orbGlow" cx="0.5" cy="0.5" r="0.5"><stop offset="0" stop-color="#B4576A" stop-opacity="0.18"/><stop offset="1" stop-color="#B4576A" stop-opacity="0"/></radialGradient>
  <radialGradient id="hi" cx="0.35" cy="0.3" r="0.5"><stop offset="0" stop-color="#ffffff" stop-opacity="0.40"/><stop offset="0.4" stop-color="#ffffff" stop-opacity="0.05"/><stop offset="1" stop-color="#ffffff" stop-opacity="0"/></radialGradient>
  <radialGradient id="bgA" cx="0.5" cy="0.5" r="0.5"><stop offset="0" stop-color="#F43F5E" stop-opacity="0.16"/><stop offset="1" stop-color="#F43F5E" stop-opacity="0"/></radialGradient>
  <radialGradient id="bgB" cx="0.5" cy="0.5" r="0.5"><stop offset="0" stop-color="#F5A742" stop-opacity="0.12"/><stop offset="1" stop-color="#F5A742" stop-opacity="0"/></radialGradient>
  <filter id="blur" x="-80%" y="-80%" width="260%" height="260%"><feGaussianBlur stdDeviation="17"/></filter>
  <filter id="blur2" x="-50%" y="-50%" width="200%" height="200%"><feGaussianBlur stdDeviation="7"/></filter>
  <filter id="grain"><feTurbulence type="fractalNoise" baseFrequency="0.85" numOctaves="2" stitchTiles="stitch"/><feColorMatrix type="saturate" values="0"/></filter>
  <linearGradient id="ag" gradientUnits="userSpaceOnUse" x1="0" y1="38" x2="0" y2="386.3">
    <stop offset="0" stop-color="#F7A94D"><animate attributeName="stop-color" values="#F7A94D;#FB6A80;#F7A94D" dur="9s" repeatCount="indefinite"/></stop>
    <stop offset="0.55" stop-color="#FB6A80"/>
    <stop offset="1" stop-color="#F43F5E"><animate attributeName="stop-color" values="#F43F5E;#F7A94D;#F43F5E" dur="9s" repeatCount="indefinite"/></stop>
  </linearGradient>
  <clipPath id="card"><rect x="1" y="1" width="1178" height="438" rx="26"/></clipPath>
</defs>
<rect width="1180" height="440" rx="26" fill="#070B14"/>
<g clip-path="url(#card)">
<rect width="1180" height="440" fill="#0B1120" opacity="0.6"/>
<ellipse cx="930" cy="200" rx="360" ry="300" fill="url(#bgA)" filter="url(#blur)"><animate attributeName="opacity" values="0.8;1;0.8" dur="9s" repeatCount="indefinite"/></ellipse>
<ellipse cx="120" cy="420" rx="340" ry="260" fill="url(#bgB)" filter="url(#blur)"><animate attributeName="opacity" values="0.6;0.95;0.6" dur="11s" repeatCount="indefinite"/></ellipse>
<g fill="#FB7185" opacity="0.055">
<circle cx="28" cy="28" r="1"/>
<circle cx="58" cy="28" r="1"/>
<circle cx="88" cy="28" r="1"/>
<circle cx="118" cy="28" r="1"/>
<circle cx="148" cy="28" r="1"/>
<circle cx="178" cy="28" r="1"/>
<circle cx="208" cy="28" r="1"/>
<circle cx="238" cy="28" r="1"/>
<circle cx="268" cy="28" r="1"/>
<circle cx="298" cy="28" r="1"/>
<circle cx="328" cy="28" r="1"/>
<circle cx="358" cy="28" r="1"/>
<circle cx="388" cy="28" r="1"/>
<circle cx="418" cy="28" r="1"/>
<circle cx="448" cy="28" r="1"/>
<circle cx="478" cy="28" r="1"/>
<circle cx="508" cy="28" r="1"/>
<circle cx="538" cy="28" r="1"/>
<circle cx="568" cy="28" r="1"/>
<circle cx="598" cy="28" r="1"/>
<circle cx="628" cy="28" r="1"/>
<circle cx="658" cy="28" r="1"/>
<circle cx="688" cy="28" r="1"/>
<circle cx="718" cy="28" r="1"/>
<circle cx="748" cy="28" r="1"/>
<circle cx="778" cy="28" r="1"/>
<circle cx="808" cy="28" r="1"/>
<circle cx="838" cy="28" r="1"/>
<circle cx="868" cy="28" r="1"/>
<circle cx="898" cy="28" r="1"/>
<circle cx="928" cy="28" r="1"/>
<circle cx="958" cy="28" r="1"/>
<circle cx="988" cy="28" r="1"/>
<circle cx="1018" cy="28" r="1"/>
<circle cx="1048" cy="28" r="1"/>
<circle cx="1078" cy="28" r="1"/>
<circle cx="1108" cy="28" r="1"/>
<circle cx="1138" cy="28" r="1"/>
<circle cx="1168" cy="28" r="1"/>
<circle cx="28" cy="58" r="1"/>
<circle cx="58" cy="58" r="1"/>
<circle cx="88" cy="58" r="1"/>
<circle cx="118" cy="58" r="1"/>
<circle cx="148" cy="58" r="1"/>
<circle cx="178" cy="58" r="1"/>
<circle cx="208" cy="58" r="1"/>
<circle cx="238" cy="58" r="1"/>
<circle cx="268" cy="58" r="1"/>
<circle cx="298" cy="58" r="1"/>
<circle cx="328" cy="58" r="1"/>
<circle cx="358" cy="58" r="1"/>
<circle cx="388" cy="58" r="1"/>
<circle cx="418" cy="58" r="1"/>
<circle cx="448" cy="58" r="1"/>
<circle cx="478" cy="58" r="1"/>
<circle cx="508" cy="58" r="1"/>
<circle cx="538" cy="58" r="1"/>
<circle cx="568" cy="58" r="1"/>
<circle cx="598" cy="58" r="1"/>
<circle cx="628" cy="58" r="1"/>
<circle cx="658" cy="58" r="1"/>
<circle cx="688" cy="58" r="1"/>
<circle cx="718" cy="58" r="1"/>
<circle cx="748" cy="58" r="1"/>
<circle cx="778" cy="58" r="1"/>
<circle cx="808" cy="58" r="1"/>
<circle cx="838" cy="58" r="1"/>
<circle cx="868" cy="58" r="1"/>
<circle cx="898" cy="58" r="1"/>
<circle cx="928" cy="58" r="1"/>
<circle cx="958" cy="58" r="1"/>
<circle cx="988" cy="58" r="1"/>
<circle cx="1018" cy="58" r="1"/>
<circle cx="1048" cy="58" r="1"/>
<circle cx="1078" cy="58" r="1"/>
<circle cx="1108" cy="58" r="1"/>
<circle cx="1138" cy="58" r="1"/>
<circle cx="1168" cy="58" r="1"/>
<circle cx="28" cy="88" r="1"/>
<circle cx="58" cy="88" r="1"/>
<circle cx="88" cy="88" r="1"/>
<circle cx="118" cy="88" r="1"/>
<circle cx="148" cy="88" r="1"/>
<circle cx="178" cy="88" r="1"/>
<circle cx="208" cy="88" r="1"/>
<circle cx="238" cy="88" r="1"/>
<circle cx="268" cy="88" r="1"/>
<circle cx="298" cy="88" r="1"/>
<circle cx="328" cy="88" r="1"/>
<circle cx="358" cy="88" r="1"/>
<circle cx="388" cy="88" r="1"/>
<circle cx="418" cy="88" r="1"/>
<circle cx="448" cy="88" r="1"/>
<circle cx="478" cy="88" r="1"/>
<circle cx="508" cy="88" r="1"/>
<circle cx="538" cy="88" r="1"/>
<circle cx="568" cy="88" r="1"/>
<circle cx="598" cy="88" r="1"/>
<circle cx="628" cy="88" r="1"/>
<circle cx="658" cy="88" r="1"/>
<circle cx="688" cy="88" r="1"/>
<circle cx="718" cy="88" r="1"/>
<circle cx="748" cy="88" r="1"/>
<circle cx="778" cy="88" r="1"/>
<circle cx="808" cy="88" r="1"/>
<circle cx="838" cy="88" r="1"/>
<circle cx="868" cy="88" r="1"/>
<circle cx="898" cy="88" r="1"/>
<circle cx="928" cy="88" r="1"/>
<circle cx="958" cy="88" r="1"/>
<circle cx="988" cy="88" r="1"/>
<circle cx="1018" cy="88" r="1"/>
<circle cx="1048" cy="88" r="1"/>
<circle cx="1078" cy="88" r="1"/>
<circle cx="1108" cy="88" r="1"/>
<circle cx="1138" cy="88" r="1"/>
<circle cx="1168" cy="88" r="1"/>
<circle cx="28" cy="118" r="1"/>
<circle cx="58" cy="118" r="1"/>
<circle cx="88" cy="118" r="1"/>
<circle cx="118" cy="118" r="1"/>
<circle cx="148" cy="118" r="1"/>
<circle cx="178" cy="118" r="1"/>
<circle cx="208" cy="118" r="1"/>
<circle cx="238" cy="118" r="1"/>
<circle cx="268" cy="118" r="1"/>
<circle cx="298" cy="118" r="1"/>
<circle cx="328" cy="118" r="1"/>
<circle cx="358" cy="118" r="1"/>
<circle cx="388" cy="118" r="1"/>
<circle cx="418" cy="118" r="1"/>
<circle cx="448" cy="118" r="1"/>
<circle cx="478" cy="118" r="1"/>
<circle cx="508" cy="118" r="1"/>
<circle cx="538" cy="118" r="1"/>
<circle cx="568" cy="118" r="1"/>
<circle cx="598" cy="118" r="1"/>
<circle cx="628" cy="118" r="1"/>
<circle cx="658" cy="118" r="1"/>
<circle cx="688" cy="118" r="1"/>
<circle cx="718" cy="118" r="1"/>
<circle cx="748" cy="118" r="1"/>
<circle cx="778" cy="118" r="1"/>
<circle cx="808" cy="118" r="1"/>
<circle cx="838" cy="118" r="1"/>
<circle cx="868" cy="118" r="1"/>
<circle cx="898" cy="118" r="1"/>
<circle cx="928" cy="118" r="1"/>
<circle cx="958" cy="118" r="1"/>
<circle cx="988" cy="118" r="1"/>
<circle cx="1018" cy="118" r="1"/>
<circle cx="1048" cy="118" r="1"/>
<circle cx="1078" cy="118" r="1"/>
<circle cx="1108" cy="118" r="1"/>
<circle cx="1138" cy="118" r="1"/>
<circle cx="1168" cy="118" r="1"/>
<circle cx="28" cy="148" r="1"/>
<circle cx="58" cy="148" r="1"/>
<circle cx="88" cy="148" r="1"/>
<circle cx="118" cy="148" r="1"/>
<circle cx="148" cy="148" r="1"/>
<circle cx="178" cy="148" r="1"/>
<circle cx="208" cy="148" r="1"/>
<circle cx="238" cy="148" r="1"/>
<circle cx="268" cy="148" r="1"/>
<circle cx="298" cy="148" r="1"/>
<circle cx="328" cy="148" r="1"/>
<circle cx="358" cy="148" r="1"/>
<circle cx="388" cy="148" r="1"/>
<circle cx="418" cy="148" r="1"/>
<circle cx="448" cy="148" r="1"/>
<circle cx="478" cy="148" r="1"/>
<circle cx="508" cy="148" r="1"/>
<circle cx="538" cy="148" r="1"/>
<circle cx="568" cy="148" r="1"/>
<circle cx="598" cy="148" r="1"/>
<circle cx="628" cy="148" r="1"/>
<circle cx="658" cy="148" r="1"/>
<circle cx="688" cy="148" r="1"/>
<circle cx="718" cy="148" r="1"/>
<circle cx="748" cy="148" r="1"/>
<circle cx="778" cy="148" r="1"/>
<circle cx="808" cy="148" r="1"/>
<circle cx="838" cy="148" r="1"/>
<circle cx="868" cy="148" r="1"/>
<circle cx="898" cy="148" r="1"/>
<circle cx="928" cy="148" r="1"/>
<circle cx="958" cy="148" r="1"/>
<circle cx="988" cy="148" r="1"/>
<circle cx="1018" cy="148" r="1"/>
<circle cx="1048" cy="148" r="1"/>
<circle cx="1078" cy="148" r="1"/>
<circle cx="1108" cy="148" r="1"/>
<circle cx="1138" cy="148" r="1"/>
<circle cx="1168" cy="148" r="1"/>
<circle cx="28" cy="178" r="1"/>
<circle cx="58" cy="178" r="1"/>
<circle cx="88" cy="178" r="1"/>
<circle cx="118" cy="178" r="1"/>
<circle cx="148" cy="178" r="1"/>
<circle cx="178" cy="178" r="1"/>
<circle cx="208" cy="178" r="1"/>
<circle cx="238" cy="178" r="1"/>
<circle cx="268" cy="178" r="1"/>
<circle cx="298" cy="178" r="1"/>
<circle cx="328" cy="178" r="1"/>
<circle cx="358" cy="178" r="1"/>
<circle cx="388" cy="178" r="1"/>
<circle cx="418" cy="178" r="1"/>
<circle cx="448" cy="178" r="1"/>
<circle cx="478" cy="178" r="1"/>
<circle cx="508" cy="178" r="1"/>
<circle cx="538" cy="178" r="1"/>
<circle cx="568" cy="178" r="1"/>
<circle cx="598" cy="178" r="1"/>
<circle cx="628" cy="178" r="1"/>
<circle cx="658" cy="178" r="1"/>
<circle cx="688" cy="178" r="1"/>
<circle cx="718" cy="178" r="1"/>
<circle cx="748" cy="178" r="1"/>
<circle cx="778" cy="178" r="1"/>
<circle cx="808" cy="178" r="1"/>
<circle cx="838" cy="178" r="1"/>
<circle cx="868" cy="178" r="1"/>
<circle cx="898" cy="178" r="1"/>
<circle cx="928" cy="178" r="1"/>
<circle cx="958" cy="178" r="1"/>
<circle cx="988" cy="178" r="1"/>
<circle cx="1018" cy="178" r="1"/>
<circle cx="1048" cy="178" r="1"/>
<circle cx="1078" cy="178" r="1"/>
<circle cx="1108" cy="178" r="1"/>
<circle cx="1138" cy="178" r="1"/>
<circle cx="1168" cy="178" r="1"/>
<circle cx="28" cy="208" r="1"/>
<circle cx="58" cy="208" r="1"/>
<circle cx="88" cy="208" r="1"/>
<circle cx="118" cy="208" r="1"/>
<circle cx="148" cy="208" r="1"/>
<circle cx="178" cy="208" r="1"/>
<circle cx="208" cy="208" r="1"/>
<circle cx="238" cy="208" r="1"/>
<circle cx="268" cy="208" r="1"/>
<circle cx="298" cy="208" r="1"/>
<circle cx="328" cy="208" r="1"/>
<circle cx="358" cy="208" r="1"/>
<circle cx="388" cy="208" r="1"/>
<circle cx="418" cy="208" r="1"/>
<circle cx="448" cy="208" r="1"/>
<circle cx="478" cy="208" r="1"/>
<circle cx="508" cy="208" r="1"/>
<circle cx="538" cy="208" r="1"/>
<circle cx="568" cy="208" r="1"/>
<circle cx="598" cy="208" r="1"/>
<circle cx="628" cy="208" r="1"/>
<circle cx="658" cy="208" r="1"/>
<circle cx="688" cy="208" r="1"/>
<circle cx="718" cy="208" r="1"/>
<circle cx="748" cy="208" r="1"/>
<circle cx="778" cy="208" r="1"/>
<circle cx="808" cy="208" r="1"/>
<circle cx="838" cy="208" r="1"/>
<circle cx="868" cy="208" r="1"/>
<circle cx="898" cy="208" r="1"/>
<circle cx="928" cy="208" r="1"/>
<circle cx="958" cy="208" r="1"/>
<circle cx="988" cy="208" r="1"/>
<circle cx="1018" cy="208" r="1"/>
<circle cx="1048" cy="208" r="1"/>
<circle cx="1078" cy="208" r="1"/>
<circle cx="1108" cy="208" r="1"/>
<circle cx="1138" cy="208" r="1"/>
<circle cx="1168" cy="208" r="1"/>
<circle cx="28" cy="238" r="1"/>
<circle cx="58" cy="238" r="1"/>
<circle cx="88" cy="238" r="1"/>
<circle cx="118" cy="238" r="1"/>
<circle cx="148" cy="238" r="1"/>
<circle cx="178" cy="238" r="1"/>
<circle cx="208" cy="238" r="1"/>
<circle cx="238" cy="238" r="1"/>
<circle cx="268" cy="238" r="1"/>
<circle cx="298" cy="238" r="1"/>
<circle cx="328" cy="238" r="1"/>
<circle cx="358" cy="238" r="1"/>
<circle cx="388" cy="238" r="1"/>
<circle cx="418" cy="238" r="1"/>
<circle cx="448" cy="238" r="1"/>
<circle cx="478" cy="238" r="1"/>
<circle cx="508" cy="238" r="1"/>
<circle cx="538" cy="238" r="1"/>
<circle cx="568" cy="238" r="1"/>
<circle cx="598" cy="238" r="1"/>
<circle cx="628" cy="238" r="1"/>
<circle cx="658" cy="238" r="1"/>
<circle cx="688" cy="238" r="1"/>
<circle cx="718" cy="238" r="1"/>
<circle cx="748" cy="238" r="1"/>
<circle cx="778" cy="238" r="1"/>
<circle cx="808" cy="238" r="1"/>
<circle cx="838" cy="238" r="1"/>
<circle cx="868" cy="238" r="1"/>
<circle cx="898" cy="238" r="1"/>
<circle cx="928" cy="238" r="1"/>
<circle cx="958" cy="238" r="1"/>
<circle cx="988" cy="238" r="1"/>
<circle cx="1018" cy="238" r="1"/>
<circle cx="1048" cy="238" r="1"/>
<circle cx="1078" cy="238" r="1"/>
<circle cx="1108" cy="238" r="1"/>
<circle cx="1138" cy="238" r="1"/>
<circle cx="1168" cy="238" r="1"/>
<circle cx="28" cy="268" r="1"/>
<circle cx="58" cy="268" r="1"/>
<circle cx="88" cy="268" r="1"/>
<circle cx="118" cy="268" r="1"/>
<circle cx="148" cy="268" r="1"/>
<circle cx="178" cy="268" r="1"/>
<circle cx="208" cy="268" r="1"/>
<circle cx="238" cy="268" r="1"/>
<circle cx="268" cy="268" r="1"/>
<circle cx="298" cy="268" r="1"/>
<circle cx="328" cy="268" r="1"/>
<circle cx="358" cy="268" r="1"/>
<circle cx="388" cy="268" r="1"/>
<circle cx="418" cy="268" r="1"/>
<circle cx="448" cy="268" r="1"/>
<circle cx="478" cy="268" r="1"/>
<circle cx="508" cy="268" r="1"/>
<circle cx="538" cy="268" r="1"/>
<circle cx="568" cy="268" r="1"/>
<circle cx="598" cy="268" r="1"/>
<circle cx="628" cy="268" r="1"/>
<circle cx="658" cy="268" r="1"/>
<circle cx="688" cy="268" r="1"/>
<circle cx="718" cy="268" r="1"/>
<circle cx="748" cy="268" r="1"/>
<circle cx="778" cy="268" r="1"/>
<circle cx="808" cy="268" r="1"/>
<circle cx="838" cy="268" r="1"/>
<circle cx="868" cy="268" r="1"/>
<circle cx="898" cy="268" r="1"/>
<circle cx="928" cy="268" r="1"/>
<circle cx="958" cy="268" r="1"/>
<circle cx="988" cy="268" r="1"/>
<circle cx="1018" cy="268" r="1"/>
<circle cx="1048" cy="268" r="1"/>
<circle cx="1078" cy="268" r="1"/>
<circle cx="1108" cy="268" r="1"/>
<circle cx="1138" cy="268" r="1"/>
<circle cx="1168" cy="268" r="1"/>
<circle cx="28" cy="298" r="1"/>
<circle cx="58" cy="298" r="1"/>
<circle cx="88" cy="298" r="1"/>
<circle cx="118" cy="298" r="1"/>
<circle cx="148" cy="298" r="1"/>
<circle cx="178" cy="298" r="1"/>
<circle cx="208" cy="298" r="1"/>
<circle cx="238" cy="298" r="1"/>
<circle cx="268" cy="298" r="1"/>
<circle cx="298" cy="298" r="1"/>
<circle cx="328" cy="298" r="1"/>
<circle cx="358" cy="298" r="1"/>
<circle cx="388" cy="298" r="1"/>
<circle cx="418" cy="298" r="1"/>
<circle cx="448" cy="298" r="1"/>
<circle cx="478" cy="298" r="1"/>
<circle cx="508" cy="298" r="1"/>
<circle cx="538" cy="298" r="1"/>
<circle cx="568" cy="298" r="1"/>
<circle cx="598" cy="298" r="1"/>
<circle cx="628" cy="298" r="1"/>
<circle cx="658" cy="298" r="1"/>
<circle cx="688" cy="298" r="1"/>
<circle cx="718" cy="298" r="1"/>
<circle cx="748" cy="298" r="1"/>
<circle cx="778" cy="298" r="1"/>
<circle cx="808" cy="298" r="1"/>
<circle cx="838" cy="298" r="1"/>
<circle cx="868" cy="298" r="1"/>
<circle cx="898" cy="298" r="1"/>
<circle cx="928" cy="298" r="1"/>
<circle cx="958" cy="298" r="1"/>
<circle cx="988" cy="298" r="1"/>
<circle cx="1018" cy="298" r="1"/>
<circle cx="1048" cy="298" r="1"/>
<circle cx="1078" cy="298" r="1"/>
<circle cx="1108" cy="298" r="1"/>
<circle cx="1138" cy="298" r="1"/>
<circle cx="1168" cy="298" r="1"/>
<circle cx="28" cy="328" r="1"/>
<circle cx="58" cy="328" r="1"/>
<circle cx="88" cy="328" r="1"/>
<circle cx="118" cy="328" r="1"/>
<circle cx="148" cy="328" r="1"/>
<circle cx="178" cy="328" r="1"/>
<circle cx="208" cy="328" r="1"/>
<circle cx="238" cy="328" r="1"/>
<circle cx="268" cy="328" r="1"/>
<circle cx="298" cy="328" r="1"/>
<circle cx="328" cy="328" r="1"/>
<circle cx="358" cy="328" r="1"/>
<circle cx="388" cy="328" r="1"/>
<circle cx="418" cy="328" r="1"/>
<circle cx="448" cy="328" r="1"/>
<circle cx="478" cy="328" r="1"/>
<circle cx="508" cy="328" r="1"/>
<circle cx="538" cy="328" r="1"/>
<circle cx="568" cy="328" r="1"/>
<circle cx="598" cy="328" r="1"/>
<circle cx="628" cy="328" r="1"/>
<circle cx="658" cy="328" r="1"/>
<circle cx="688" cy="328" r="1"/>
<circle cx="718" cy="328" r="1"/>
<circle cx="748" cy="328" r="1"/>
<circle cx="778" cy="328" r="1"/>
<circle cx="808" cy="328" r="1"/>
<circle cx="838" cy="328" r="1"/>
<circle cx="868" cy="328" r="1"/>
<circle cx="898" cy="328" r="1"/>
<circle cx="928" cy="328" r="1"/>
<circle cx="958" cy="328" r="1"/>
<circle cx="988" cy="328" r="1"/>
<circle cx="1018" cy="328" r="1"/>
<circle cx="1048" cy="328" r="1"/>
<circle cx="1078" cy="328" r="1"/>
<circle cx="1108" cy="328" r="1"/>
<circle cx="1138" cy="328" r="1"/>
<circle cx="1168" cy="328" r="1"/>
<circle cx="28" cy="358" r="1"/>
<circle cx="58" cy="358" r="1"/>
<circle cx="88" cy="358" r="1"/>
<circle cx="118" cy="358" r="1"/>
<circle cx="148" cy="358" r="1"/>
<circle cx="178" cy="358" r="1"/>
<circle cx="208" cy="358" r="1"/>
<circle cx="238" cy="358" r="1"/>
<circle cx="268" cy="358" r="1"/>
<circle cx="298" cy="358" r="1"/>
<circle cx="328" cy="358" r="1"/>
<circle cx="358" cy="358" r="1"/>
<circle cx="388" cy="358" r="1"/>
<circle cx="418" cy="358" r="1"/>
<circle cx="448" cy="358" r="1"/>
<circle cx="478" cy="358" r="1"/>
<circle cx="508" cy="358" r="1"/>
<circle cx="538" cy="358" r="1"/>
<circle cx="568" cy="358" r="1"/>
<circle cx="598" cy="358" r="1"/>
<circle cx="628" cy="358" r="1"/>
<circle cx="658" cy="358" r="1"/>
<circle cx="688" cy="358" r="1"/>
<circle cx="718" cy="358" r="1"/>
<circle cx="748" cy="358" r="1"/>
<circle cx="778" cy="358" r="1"/>
<circle cx="808" cy="358" r="1"/>
<circle cx="838" cy="358" r="1"/>
<circle cx="868" cy="358" r="1"/>
<circle cx="898" cy="358" r="1"/>
<circle cx="928" cy="358" r="1"/>
<circle cx="958" cy="358" r="1"/>
<circle cx="988" cy="358" r="1"/>
<circle cx="1018" cy="358" r="1"/>
<circle cx="1048" cy="358" r="1"/>
<circle cx="1078" cy="358" r="1"/>
<circle cx="1108" cy="358" r="1"/>
<circle cx="1138" cy="358" r="1"/>
<circle cx="1168" cy="358" r="1"/>
<circle cx="28" cy="388" r="1"/>
<circle cx="58" cy="388" r="1"/>
<circle cx="88" cy="388" r="1"/>
<circle cx="118" cy="388" r="1"/>
<circle cx="148" cy="388" r="1"/>
<circle cx="178" cy="388" r="1"/>
<circle cx="208" cy="388" r="1"/>
<circle cx="238" cy="388" r="1"/>
<circle cx="268" cy="388" r="1"/>
<circle cx="298" cy="388" r="1"/>
<circle cx="328" cy="388" r="1"/>
<circle cx="358" cy="388" r="1"/>
<circle cx="388" cy="388" r="1"/>
<circle cx="418" cy="388" r="1"/>
<circle cx="448" cy="388" r="1"/>
<circle cx="478" cy="388" r="1"/>
<circle cx="508" cy="388" r="1"/>
<circle cx="538" cy="388" r="1"/>
<circle cx="568" cy="388" r="1"/>
<circle cx="598" cy="388" r="1"/>
<circle cx="628" cy="388" r="1"/>
<circle cx="658" cy="388" r="1"/>
<circle cx="688" cy="388" r="1"/>
<circle cx="718" cy="388" r="1"/>
<circle cx="748" cy="388" r="1"/>
<circle cx="778" cy="388" r="1"/>
<circle cx="808" cy="388" r="1"/>
<circle cx="838" cy="388" r="1"/>
<circle cx="868" cy="388" r="1"/>
<circle cx="898" cy="388" r="1"/>
<circle cx="928" cy="388" r="1"/>
<circle cx="958" cy="388" r="1"/>
<circle cx="988" cy="388" r="1"/>
<circle cx="1018" cy="388" r="1"/>
<circle cx="1048" cy="388" r="1"/>
<circle cx="1078" cy="388" r="1"/>
<circle cx="1108" cy="388" r="1"/>
<circle cx="1138" cy="388" r="1"/>
<circle cx="1168" cy="388" r="1"/>
<circle cx="28" cy="418" r="1"/>
<circle cx="58" cy="418" r="1"/>
<circle cx="88" cy="418" r="1"/>
<circle cx="118" cy="418" r="1"/>
<circle cx="148" cy="418" r="1"/>
<circle cx="178" cy="418" r="1"/>
<circle cx="208" cy="418" r="1"/>
<circle cx="238" cy="418" r="1"/>
<circle cx="268" cy="418" r="1"/>
<circle cx="298" cy="418" r="1"/>
<circle cx="328" cy="418" r="1"/>
<circle cx="358" cy="418" r="1"/>
<circle cx="388" cy="418" r="1"/>
<circle cx="418" cy="418" r="1"/>
<circle cx="448" cy="418" r="1"/>
<circle cx="478" cy="418" r="1"/>
<circle cx="508" cy="418" r="1"/>
<circle cx="538" cy="418" r="1"/>
<circle cx="568" cy="418" r="1"/>
<circle cx="598" cy="418" r="1"/>
<circle cx="628" cy="418" r="1"/>
<circle cx="658" cy="418" r="1"/>
<circle cx="688" cy="418" r="1"/>
<circle cx="718" cy="418" r="1"/>
<circle cx="748" cy="418" r="1"/>
<circle cx="778" cy="418" r="1"/>
<circle cx="808" cy="418" r="1"/>
<circle cx="838" cy="418" r="1"/>
<circle cx="868" cy="418" r="1"/>
<circle cx="898" cy="418" r="1"/>
<circle cx="928" cy="418" r="1"/>
<circle cx="958" cy="418" r="1"/>
<circle cx="988" cy="418" r="1"/>
<circle cx="1018" cy="418" r="1"/>
<circle cx="1048" cy="418" r="1"/>
<circle cx="1078" cy="418" r="1"/>
<circle cx="1108" cy="418" r="1"/>
<circle cx="1138" cy="418" r="1"/>
<circle cx="1168" cy="418" r="1"/>
</g>
<circle cx="250" cy="450" r="1.6" fill="#FB7185" opacity="0"><animateTransform attributeName="transform" type="translate" values="0 0;0 -480" dur="13s" begin="0s" repeatCount="indefinite"/><animate attributeName="opacity" values="0;0.55;0" dur="13s" begin="0s" repeatCount="indefinite"/></circle>
<circle cx="520" cy="450" r="1.6" fill="#FB7185" opacity="0"><animateTransform attributeName="transform" type="translate" values="0 0;0 -480" dur="16s" begin="-2s" repeatCount="indefinite"/><animate attributeName="opacity" values="0;0.55;0" dur="16s" begin="-2s" repeatCount="indefinite"/></circle>
<circle cx="760" cy="450" r="1.6" fill="#FB7185" opacity="0"><animateTransform attributeName="transform" type="translate" values="0 0;0 -480" dur="12s" begin="-4s" repeatCount="indefinite"/><animate attributeName="opacity" values="0;0.55;0" dur="12s" begin="-4s" repeatCount="indefinite"/></circle>
<circle cx="1000" cy="450" r="1.6" fill="#FB7185" opacity="0"><animateTransform attributeName="transform" type="translate" values="0 0;0 -480" dur="15s" begin="-6s" repeatCount="indefinite"/><animate attributeName="opacity" values="0;0.55;0" dur="15s" begin="-6s" repeatCount="indefinite"/></circle>
<circle cx="180" cy="450" r="1.6" fill="#FB7185" opacity="0"><animateTransform attributeName="transform" type="translate" values="0 0;0 -480" dur="17s" begin="-8s" repeatCount="indefinite"/><animate attributeName="opacity" values="0;0.55;0" dur="17s" begin="-8s" repeatCount="indefinite"/></circle>
<circle cx="640" cy="450" r="1.6" fill="#FB7185" opacity="0"><animateTransform attributeName="transform" type="translate" values="0 0;0 -480" dur="14s" begin="-10s" repeatCount="indefinite"/><animate attributeName="opacity" values="0;0.55;0" dur="14s" begin="-10s" repeatCount="indefinite"/></circle>
<rect width="1180" height="440" filter="url(#grain)" opacity="0.03"/>
</g>
<rect x="1" y="1" width="1178" height="438" rx="26" fill="none" stroke="rgba(255,255,255,0.08)" stroke-width="1.2"/>
<rect x="1" y="1" width="1178" height="438" rx="26" fill="none" stroke="url(#shim)" stroke-width="1.4" opacity="0.85"/>
<g><animateTransform attributeName="transform" type="translate" values="0 -5;0 5;0 -5" dur="9s" repeatCount="indefinite"/>
<ellipse cx="912" cy="222" rx="250" ry="210" fill="url(#orbGlow)" opacity="0.72"/>
<g font-family="'JetBrains Mono','SF Mono','Cascadia Code',ui-monospace,Menlo,Consolas,monospace" font-size="8.3" fill="url(#ag)" xml:space="preserve">
<text x="684" y="42.0" opacity="0">                                  i<animate attributeName="opacity" values="0;1" dur="0.4s" begin="0.500s" fill="freeze"/></text>
<text x="684" y="50.3" opacity="0">                                  -<animate attributeName="opacity" values="0;1" dur="0.4s" begin="0.520s" fill="freeze"/></text>
<text x="684" y="58.6" opacity="0">                                    &gt;]}}}1)1[+<animate attributeName="opacity" values="0;1" dur="0.4s" begin="0.540s" fill="freeze"/></text>
<text x="684" y="66.9" opacity="0">                                  &lt;_{trxcUJJLLz/[<animate attributeName="opacity" values="0;1" dur="0.4s" begin="0.560s" fill="freeze"/></text>
<text x="684" y="75.2" opacity="0">                                  ~+[fvYLZ0JUJXzUzf~<animate attributeName="opacity" values="0;1" dur="0.4s" begin="0.580s" fill="freeze"/></text>
<text x="684" y="83.5" opacity="0">                                 i    ~tzz/-+?{1(xJX(<animate attributeName="opacity" values="0;1" dur="0.4s" begin="0.600s" fill="freeze"/></text>
<text x="684" y="91.8" opacity="0">                                 c{~i  ?CwY|?}[\u0wmz&lt;[}?<animate attributeName="opacity" values="0;1" dur="0.4s" begin="0.620s" fill="freeze"/></text>
<text x="684" y="100.1" opacity="0">                                 c{1((}r#8*hQYCqkoapX)XmY1<animate attributeName="opacity" values="0;1" dur="0.4s" begin="0.640s" fill="freeze"/></text>
<text x="684" y="108.4" opacity="0">                                &gt;UnuYx|0%%&amp;bh%@@B#k0xUJpU<animate attributeName="opacity" values="0;1" dur="0.4s" begin="0.660s" fill="freeze"/></text>
<text x="684" y="116.7" opacity="0">!                               _Oxcu(1/xxQ0X0bhkpmLvp%m                           &lt;&gt;<animate attributeName="opacity" values="0;1" dur="0.4s" begin="0.680s" fill="freeze"/></text>
<text x="684" y="125.0" opacity="0">i&gt;                               [tr/]-]rvUZz|vUX0wC)-{i     &gt;!                    -+<animate attributeName="opacity" values="0;1" dur="0.4s" begin="0.700s" fill="freeze"/></text>
<text x="684" y="133.3" opacity="0"> ?&gt;                               _r\]?1\rrXCvJZm0v|&lt;  [}//|u+~&lt;&gt;!          ii&gt;&lt;&lt;&lt;i  ii<animate attributeName="opacity" values="0;1" dur="0.4s" begin="0.720s" fill="freeze"/></text>
<text x="684" y="141.6" opacity="0"> _{                            i  !)((\jnYmdpOYYn[&gt;    nmCj{[]?-+~&lt;i!    i&gt;&lt;~++___~  ~&lt;i<animate attributeName="opacity" values="0;1" dur="0.4s" begin="0.740s" fill="freeze"/></text>
<text x="684" y="149.9" opacity="0">  |]                         i&gt;&lt;  &lt;?]-)ruYJUvt[&lt;      ]XmQnrzv{]]?_+~&lt;&lt;&lt;&lt;~+_-?]]]]+  _~&lt;i<animate attributeName="opacity" values="0;1" dur="0.4s" begin="0.760s" fill="freeze"/></text>
<text x="684" y="158.2" opacity="0">  ]r&lt;                       &gt;&lt;~+  1tfc?              )cU0bbQvzC\}}[]??????][[}}}}}_  ?_~&lt;<animate attributeName="opacity" values="0;1" dur="0.4s" begin="0.780s" fill="freeze"/></text>
<text x="684" y="166.5" opacity="0">   rt                     i&gt;~++?fJ{1kU             -tYQQCL0k#ddoUt1111{{{{11111)11-  ]-_~<animate attributeName="opacity" values="0;1" dur="0.4s" begin="0.800s" fill="freeze"/></text>
<text x="684" y="174.8" opacity="0">   (J[         ~~&lt;&lt;&gt;&gt;iiii&gt;&lt;~~_rpkXnh|             )vYLOCLQUYJQZb#*Lx/\\\\\\/\\||()- i[?--!<animate attributeName="opacity" values="0;1" dur="0.4s" begin="0.820s" fill="freeze"/></text>
<text x="684" y="183.1" opacity="0">   [C1    -1(/f|||||t{]|]~+_10@#b8&amp;\            [jvzf1(]--[|nXCmqkbd0zxrrrrrrft\|(- ~{[]]&gt;<animate attributeName="opacity" values="0;1" dur="0.4s" begin="0.840s" fill="freeze"/></text>
<text x="684" y="191.4" opacity="0">   &lt;Yt   ~}(|tnnjtfjn|[\1_-(dab@@a1           ~1{-[_  _]1fU0mmqk*W@&amp;aCUuuunxrrjt\|- _1}}{~<animate attributeName="opacity" values="0;1" dur="0.4s" begin="0.860s" fill="freeze"/></text>
<text x="684" y="199.7" opacity="0">    ru&lt;&gt;&gt;iii~_(|||tj}][]--}Y&amp;8B%O[           &gt;    i +vvrvYJ0L0wpdb&amp;@@BhJvvvnxxrft\- -){1)_<animate attributeName="opacity" values="0;1" dur="0.4s" begin="0.880s" fill="freeze"/></text>
<text x="684" y="208.0" opacity="0">    ]U[+~&lt;   &lt;)|\ttf[[1?-?\b@@#c+             i]1t|&lt;ncrxYUzXJLZZwZd%%&amp;%%kYvvunrft/_ ?1\(|x<animate attributeName="opacity" values="0;1" dur="0.4s" begin="0.900s" fill="freeze"/></text>
<text x="684" y="216.3" opacity="0">     Ut-~&gt;ii&gt;[/t|())~&lt;~  ij#Wbf~             |ccvr&gt;/vrxYUcrxvYJXUQwdao#&amp;BMzuunxjft- 1{}|\\<animate attributeName="opacity" values="0;1" dur="0.4s" begin="0.920s" fill="freeze"/></text>
<text x="684" y="224.6" opacity="0">     ]]            ~      ChOf+ ~          _vYXvx_-unrcCJcnvvzxvJCOmpk*W&amp;%bvvunrft|f(/(||[<animate attributeName="opacity" values="0;1" dur="0.4s" begin="0.940s" fill="freeze"/></text>
<text x="684" y="232.9" opacity="0">   !   _?                +pdv- &gt;[         ]xuucx{&lt;xucvzJXnxuvfjzYYCOqbh#W%8Cvvurft/r1\)(|]<animate attributeName="opacity" values="0;1" dur="0.4s" begin="0.960s" fill="freeze"/></text>
<text x="684" y="241.2" opacity="0">                       f {Qx}~&gt;}         [rxxjj1 )fjxuxxxfruf(ucYUYCOwpaoM%quvvrf//f\\)()]<animate attributeName="opacity" values="0;1" dur="0.4s" begin="0.980s" fill="freeze"/></text>
<text x="684" y="249.5" opacity="0">                       z {t[_           ?trt/\1 &lt;/rrfr/rrfjr)frvXzXL0Zqdao*kXvujf/tf\\1){_<animate attributeName="opacity" values="0;1" dur="0.4s" begin="1.000s" fill="freeze"/></text>
<text x="684" y="257.8" opacity="0"> &lt;_ ~}&gt;    _   &lt;       U ?]?           -|jt((}  )\tfjrnf/jx{1rfvccXCC0mmkk*#wunft\tj|(}{[&gt;<animate attributeName="opacity" values="0;1" dur="0.4s" begin="1.020s" fill="freeze"/></text>
<text x="684" y="266.1" opacity="0"> +~ +]i    _   i      &gt;u -?&lt; +        _((t|1[   [)\||rv/tj\+1txvnuvXUUCOqdhopnxft\/t|)}}?<animate attributeName="opacity" values="0;1" dur="0.4s" begin="1.040s" fill="freeze"/></text>
<text x="684" y="274.4" opacity="0"> +&gt; +_i ~  -         ]\ &lt;-+          /\(|)1?&gt;  -1(\\trjfff[i1/ffrnvzzXUCZwdkmXjt\\11\1]-&lt;<animate attributeName="opacity" values="0;1" dur="0.4s" begin="1.060s" fill="freeze"/></text>
<text x="684" y="282.7" opacity="0"> ~  ~~ ~&lt;  _        iri _~i         tc)(1}_&gt;i ~(/\\\fft|\|&lt; {|/jrxrxuXYUL0OqdCf/\\{]]~i<animate attributeName="opacity" values="0;1" dur="0.4s" begin="1.080s" fill="freeze"/></text>
<text x="684" y="291.0" opacity="0"> &gt;  &lt;i ]   +        f~  +&gt;         1x11{]i&lt;-~_}|(()(t/\|)[  ])|/jxnnnuzXYYJOpLf|1[++_+&lt;iii<animate attributeName="opacity" values="0;1" dur="0.4s" begin="1.100s" fill="freeze"/></text>
<text x="684" y="299.3" opacity="0">    &gt;  ?   &lt;       t[   &lt;         ]c)(r1 +-__-[)(11\\||)[&lt;  _[)|frurxnuccnvY0Y1+&gt;~)fzcr1<animate attributeName="opacity" values="0;1" dur="0.4s" begin="1.120s" fill="freeze"/></text>
<text x="684" y="307.6" opacity="0">      i_   i      )}        i    +v((f] -]][]])\){)|(){)-   &gt;])|ffrfftrvvvrjnr   i-[}1[i<animate attributeName="opacity" values="0;1" dur="0.4s" begin="1.140s" fill="freeze"/></text>
<text x="684" y="315.9" opacity="0">      &lt;!  !      [[              Xtf\  i+?[[}]{{[[1)1{}]~    &lt;1)|(|\\tfxnxrt)\1?_&lt;<animate attributeName="opacity" values="0;1" dur="0.4s" begin="1.160s" fill="freeze"/></text>
<text x="684" y="324.2" opacity="0">      &lt;         [?              nj\~ ~&gt;&gt;+]]}[[{}}{{1}]]~      ?{}})\/tttfjt/)}}<animate attributeName="opacity" values="0;1" dur="0.4s" begin="1.180s" fill="freeze"/></text>
<text x="684" y="332.5" opacity="0">      i        &gt;&lt;           ~  r/- i_+&lt;&lt;-?[[]}[?}}}]-+&lt;i      -[[{11))(|\()){[-<animate attributeName="opacity" values="0;1" dur="0.4s" begin="1.200s" fill="freeze"/></text>
<text x="684" y="340.8" opacity="0">                              j)  _?_~&lt;+-?]?]??]][[-~&lt;&gt;       _?]}}[}}}}1}[]?_~<animate attributeName="opacity" values="0;1" dur="0.4s" begin="1.220s" fill="freeze"/></text>
<text x="684" y="349.1" opacity="0">                             _&lt;  ~~++&gt;i__--??_-]?_~&gt;&gt;i!        &lt;~_?-]??-__~+~&gt;<animate attributeName="opacity" values="0;1" dur="0.4s" begin="1.240s" fill="freeze"/></text>
<text x="684" y="357.4" opacity="0">                            &gt;iii&gt;~&lt;&lt;&lt;&lt;&lt;~~~____+__&gt; i!              &gt;_]-_+&gt;<animate attributeName="opacity" values="0;1" dur="0.4s" begin="1.260s" fill="freeze"/></text>
<text x="684" y="365.7" opacity="0">                           [&lt; &lt;&lt;&gt;&gt;&lt;&gt;i &gt;&lt;~+++~~&lt;&gt;                     i&lt;&lt;&lt;i<animate attributeName="opacity" values="0;1" dur="0.4s" begin="1.280s" fill="freeze"/></text>
<text x="684" y="374.0" opacity="0">                           -       &lt;&lt;i  &gt;~&lt;&lt;&lt;ii<animate attributeName="opacity" values="0;1" dur="0.4s" begin="1.300s" fill="freeze"/></text>
<text x="684" y="382.3" opacity="0">                                         iii<animate attributeName="opacity" values="0;1" dur="0.4s" begin="1.320s" fill="freeze"/></text>
</g>
<rect x="678" y="34" width="492" height="2.4" fill="#F5A742" opacity="0.45"><animateTransform attributeName="transform" type="translate" values="0 0;0 356" dur="4.5s" begin="1.1s" repeatCount="indefinite"/><animate attributeName="opacity" values="0;0.5;0" dur="4.5s" begin="1.1s" repeatCount="indefinite"/></rect>
</g>
<text x="64" y="78" font-family="'JetBrains Mono','SF Mono','Cascadia Code',ui-monospace,Menlo,Consolas,monospace" font-size="13.5" opacity="0"><tspan fill="#34D399">kac0@kali</tspan><tspan fill="#5C6982">:</tspan><tspan fill="#FB7185">~</tspan><tspan fill="#5C6982">$ </tspan><tspan fill="#93A0B4">whoami</tspan><animate attributeName="opacity" values="0;1" dur="0.4s" begin="0.2s" fill="freeze"/></text>
<text x="64" y="132" font-family="'Inter','SF Pro Display',-apple-system,'Segoe UI',Roboto,Helvetica,Arial,sans-serif" font-size="46" font-weight="800" letter-spacing="-1" fill="#F3F6FB" opacity="0">Marco Alfan<animate attributeName="opacity" values="0;1" dur="0.55s" begin="0.45s" fill="freeze"/><animateTransform attributeName="transform" type="translate" values="0 10;0 0" dur="0.55s" begin="0.45s" fill="freeze"/></text>
<text x="336" y="132" font-family="'JetBrains Mono','SF Mono','Cascadia Code',ui-monospace,Menlo,Consolas,monospace" font-size="15" fill="#5C6982" opacity="0">@kac0<animate attributeName="opacity" values="0;0.9" dur="0.5s" begin="0.75s" fill="freeze"/></text>
<rect x="64" y="146" height="3" rx="1.5" width="0" fill="url(#acc)"><animate attributeName="width" values="0;196" dur="0.7s" begin="0.7s" fill="freeze" calcMode="spline" keySplines="0.2 0 0 1"/></rect>
<text x="64" y="186" font-family="'JetBrains Mono','SF Mono','Cascadia Code',ui-monospace,Menlo,Consolas,monospace" font-size="17" fill="#FB7185">&#9656;</text>
<clipPath id="rc0"><rect x="86" y="170" height="22" width="0"><animate attributeName="width" values="0.0;288.9;288.9;0.0;0.0" keyTimes="0.0000;0.0667;0.1733;0.1867;1.0000" dur="15.0s" repeatCount="indefinite"/></rect></clipPath>
<g clip-path="url(#rc0)"><text x="86" y="186" font-family="'JetBrains Mono','SF Mono','Cascadia Code',ui-monospace,Menlo,Consolas,monospace" font-size="17" font-weight="500" fill="#F3F6FB" textLength="289" lengthAdjust="spacingAndGlyphs">Offensive Security Engineer</text><rect x="375" y="172" width="10" height="18" fill="#F5A742"><animate attributeName="opacity" values="1;1;0;0;1" dur="1s" repeatCount="indefinite"/></rect></g>
<clipPath id="rc1"><rect x="86" y="170" height="22" width="0"><animate attributeName="width" values="0.0;0.0;192.6;192.6;0.0;0.0" keyTimes="0.0000;0.2000;0.2667;0.3733;0.3867;1.0000" dur="15.0s" repeatCount="indefinite"/></rect></clipPath>
<g clip-path="url(#rc1)"><text x="86" y="186" font-family="'JetBrains Mono','SF Mono','Cascadia Code',ui-monospace,Menlo,Consolas,monospace" font-size="17" font-weight="500" fill="#F3F6FB" textLength="193" lengthAdjust="spacingAndGlyphs">Penetration Tester</text><rect x="279" y="172" width="10" height="18" fill="#F5A742"><animate attributeName="opacity" values="1;1;0;0;1" dur="1s" repeatCount="indefinite"/></rect></g>
<clipPath id="rc2"><rect x="86" y="170" height="22" width="0"><animate attributeName="width" values="0.0;0.0;181.9;181.9;0.0;0.0" keyTimes="0.0000;0.4000;0.4667;0.5733;0.5867;1.0000" dur="15.0s" repeatCount="indefinite"/></rect></clipPath>
<g clip-path="url(#rc2)"><text x="86" y="186" font-family="'JetBrains Mono','SF Mono','Cascadia Code',ui-monospace,Menlo,Consolas,monospace" font-size="17" font-weight="500" fill="#F3F6FB" textLength="182" lengthAdjust="spacingAndGlyphs">Red Team Operator</text><rect x="268" y="172" width="10" height="18" fill="#F5A742"><animate attributeName="opacity" values="1;1;0;0;1" dur="1s" repeatCount="indefinite"/></rect></g>
<clipPath id="rc3"><rect x="86" y="170" height="22" width="0"><animate attributeName="width" values="0.0;0.0;288.9;288.9;0.0;0.0" keyTimes="0.0000;0.6000;0.6667;0.7733;0.7867;1.0000" dur="15.0s" repeatCount="indefinite"/></rect></clipPath>
<g clip-path="url(#rc3)"><text x="86" y="186" font-family="'JetBrains Mono','SF Mono','Cascadia Code',ui-monospace,Menlo,Consolas,monospace" font-size="17" font-weight="500" fill="#F3F6FB" textLength="289" lengthAdjust="spacingAndGlyphs">Threat Intelligence Analyst</text><rect x="375" y="172" width="10" height="18" fill="#F5A742"><animate attributeName="opacity" values="1;1;0;0;1" dur="1s" repeatCount="indefinite"/></rect></g>
<clipPath id="rc4"><rect x="86" y="170" height="22" width="0"><animate attributeName="width" values="0.0;0.0;171.2;171.2;0.0;0.0" keyTimes="0.0000;0.8000;0.8667;0.9733;0.9867;1.0000" dur="15.0s" repeatCount="indefinite"/></rect></clipPath>
<g clip-path="url(#rc4)"><text x="86" y="186" font-family="'JetBrains Mono','SF Mono','Cascadia Code',ui-monospace,Menlo,Consolas,monospace" font-size="17" font-weight="500" fill="#F3F6FB" textLength="171" lengthAdjust="spacingAndGlyphs">Mentor &amp; Trainer</text><rect x="257" y="172" width="10" height="18" fill="#F5A742"><animate attributeName="opacity" values="1;1;0;0;1" dur="1s" repeatCount="indefinite"/></rect></g>
<text x="64" y="224" font-family="'Inter','SF Pro Display',-apple-system,'Segoe UI',Roboto,Helvetica,Arial,sans-serif" font-size="15" fill="#93A0B4" opacity="0">I help teams find and fix security gaps before adversaries do.<animate attributeName="opacity" values="0;1" dur="0.5s" begin="1.0s" fill="freeze"/></text>
<text x="64" y="248" font-family="'Inter','SF Pro Display',-apple-system,'Segoe UI',Roboto,Helvetica,Arial,sans-serif" font-size="15" fill="#93A0B4" opacity="0">Pentesting · Red teaming · Threat intelligence · Mentoring.<animate attributeName="opacity" values="0;1" dur="0.5s" begin="1.2s" fill="freeze"/></text>
<g opacity="0"><animate attributeName="opacity" values="0;1" dur="0.45s" begin="1.4s" fill="freeze"/><animateTransform attributeName="transform" type="translate" values="0 6;0 0" dur="0.45s" begin="1.4s" fill="freeze"/><rect x="64" y="290" width="124" height="29" rx="8" fill="rgba(255,255,255,0.045)" stroke="rgba(255,255,255,0.11)" stroke-width="1"/><circle cx="78" cy="304.5" r="2.4" fill="url(#acc)"><animate attributeName="opacity" values="1;0.45;1" dur="3s" begin="0.0s" repeatCount="indefinite"/></circle><text x="89" y="309" font-family="'JetBrains Mono','SF Mono','Cascadia Code',ui-monospace,Menlo,Consolas,monospace" font-size="12.5" fill="#93A0B4" textLength="88" lengthAdjust="spacingAndGlyphs">Red Teaming</text></g>
<g opacity="0"><animate attributeName="opacity" values="0;1" dur="0.45s" begin="1.5s" fill="freeze"/><animateTransform attributeName="transform" type="translate" values="0 6;0 0" dur="0.45s" begin="1.5s" fill="freeze"/><rect x="197.0" y="290" width="116" height="29" rx="8" fill="rgba(255,255,255,0.045)" stroke="rgba(255,255,255,0.11)" stroke-width="1"/><circle cx="211.0" cy="304.5" r="2.4" fill="url(#acc)"><animate attributeName="opacity" values="1;0.45;1" dur="3s" begin="-0.35s" repeatCount="indefinite"/></circle><text x="222.0" y="309" font-family="'JetBrains Mono','SF Mono','Cascadia Code',ui-monospace,Menlo,Consolas,monospace" font-size="12.5" fill="#93A0B4" textLength="80" lengthAdjust="spacingAndGlyphs">Pentesting</text></g>
<g opacity="0"><animate attributeName="opacity" values="0;1" dur="0.45s" begin="1.5999999999999999s" fill="freeze"/><animateTransform attributeName="transform" type="translate" values="0 6;0 0" dur="0.45s" begin="1.5999999999999999s" fill="freeze"/><rect x="322.0" y="290" width="132" height="29" rx="8" fill="rgba(255,255,255,0.045)" stroke="rgba(255,255,255,0.11)" stroke-width="1"/><circle cx="336.0" cy="304.5" r="2.4" fill="url(#acc)"><animate attributeName="opacity" values="1;0.45;1" dur="3s" begin="-0.7s" repeatCount="indefinite"/></circle><text x="347.0" y="309" font-family="'JetBrains Mono','SF Mono','Cascadia Code',ui-monospace,Menlo,Consolas,monospace" font-size="12.5" fill="#93A0B4" textLength="96" lengthAdjust="spacingAndGlyphs">Threat Intel</text></g>
<g opacity="0"><animate attributeName="opacity" values="0;1" dur="0.45s" begin="1.7s" fill="freeze"/><animateTransform attributeName="transform" type="translate" values="0 6;0 0" dur="0.45s" begin="1.7s" fill="freeze"/><rect x="463.0" y="290" width="76" height="29" rx="8" fill="rgba(255,255,255,0.045)" stroke="rgba(255,255,255,0.11)" stroke-width="1"/><circle cx="477.0" cy="304.5" r="2.4" fill="url(#acc)"><animate attributeName="opacity" values="1;0.45;1" dur="3s" begin="-1.0499999999999998s" repeatCount="indefinite"/></circle><text x="488.0" y="309" font-family="'JetBrains Mono','SF Mono','Cascadia Code',ui-monospace,Menlo,Consolas,monospace" font-size="12.5" fill="#93A0B4" textLength="40" lengthAdjust="spacingAndGlyphs">OSINT</text></g>
<g opacity="0"><animate attributeName="opacity" values="0;1" dur="0.45s" begin="1.7999999999999998s" fill="freeze"/><animateTransform attributeName="transform" type="translate" values="0 6;0 0" dur="0.45s" begin="1.7999999999999998s" fill="freeze"/><rect x="64" y="328" width="132" height="29" rx="8" fill="rgba(255,255,255,0.045)" stroke="rgba(255,255,255,0.11)" stroke-width="1"/><circle cx="78" cy="342.5" r="2.4" fill="url(#acc)"><animate attributeName="opacity" values="1;0.45;1" dur="3s" begin="-1.4s" repeatCount="indefinite"/></circle><text x="89" y="347" font-family="'JetBrains Mono','SF Mono','Cascadia Code',ui-monospace,Menlo,Consolas,monospace" font-size="12.5" fill="#93A0B4" textLength="96" lengthAdjust="spacingAndGlyphs">MITRE ATT&amp;CK</text></g>
<g opacity="0"><animate attributeName="opacity" values="0;1" dur="0.45s" begin="1.9s" fill="freeze"/><animateTransform attributeName="transform" type="translate" values="0 6;0 0" dur="0.45s" begin="1.9s" fill="freeze"/><rect x="205.0" y="328" width="84" height="29" rx="8" fill="rgba(255,255,255,0.045)" stroke="rgba(255,255,255,0.11)" stroke-width="1"/><circle cx="219.0" cy="342.5" r="2.4" fill="url(#acc)"><animate attributeName="opacity" values="1;0.45;1" dur="3s" begin="-1.75s" repeatCount="indefinite"/></circle><text x="230.0" y="347" font-family="'JetBrains Mono','SF Mono','Cascadia Code',ui-monospace,Menlo,Consolas,monospace" font-size="12.5" fill="#93A0B4" textLength="48" lengthAdjust="spacingAndGlyphs">Python</text></g>
<g opacity="0"><animate attributeName="opacity" values="0;1" dur="0.45s" begin="2.0s" fill="freeze"/><animateTransform attributeName="transform" type="translate" values="0 6;0 0" dur="0.45s" begin="2.0s" fill="freeze"/><rect x="298.0" y="328" width="116" height="29" rx="8" fill="rgba(255,255,255,0.045)" stroke="rgba(255,255,255,0.11)" stroke-width="1"/><circle cx="312.0" cy="342.5" r="2.4" fill="url(#acc)"><animate attributeName="opacity" values="1;0.45;1" dur="3s" begin="-2.0999999999999996s" repeatCount="indefinite"/></circle><text x="323.0" y="347" font-family="'JetBrains Mono','SF Mono','Cascadia Code',ui-monospace,Menlo,Consolas,monospace" font-size="12.5" fill="#93A0B4" textLength="80" lengthAdjust="spacingAndGlyphs">Burp Suite</text></g>
<g opacity="0"><animate attributeName="opacity" values="0;1" dur="0.45s" begin="2.1s" fill="freeze"/><animateTransform attributeName="transform" type="translate" values="0 6;0 0" dur="0.45s" begin="2.1s" fill="freeze"/><rect x="423.0" y="328" width="68" height="29" rx="8" fill="rgba(255,255,255,0.045)" stroke="rgba(255,255,255,0.11)" stroke-width="1"/><circle cx="437.0" cy="342.5" r="2.4" fill="url(#acc)"><animate attributeName="opacity" values="1;0.45;1" dur="3s" begin="-2.4499999999999997s" repeatCount="indefinite"/></circle><text x="448.0" y="347" font-family="'JetBrains Mono','SF Mono','Cascadia Code',ui-monospace,Menlo,Consolas,monospace" font-size="12.5" fill="#93A0B4" textLength="32" lengthAdjust="spacingAndGlyphs">Nmap</text></g>
<g transform="translate(64,392)" opacity="0"><animate attributeName="opacity" values="0;1" dur="0.5s" begin="2.0s" fill="freeze"/><g transform="scale(0.8)" fill="#93A0B4"><path d="M11 0C4.9 0 0 5 0 11.2c0 4.9 3.2 9.1 7.6 10.6.6.1.8-.2.8-.5v-1.9c-3.1.7-3.8-1.5-3.8-1.5-.5-1.3-1.2-1.7-1.2-1.7-1-.7.1-.7.1-.7 1.1.1 1.7 1.2 1.7 1.2 1 1.7 2.6 1.2 3.3.9.1-.7.4-1.2.7-1.5-2.5-.3-5.1-1.3-5.1-5.6 0-1.2.4-2.2 1.1-3-.1-.3-.5-1.4.1-3 0 0 .9-.3 3 1.1a10.4 10.4 0 015.6 0c2.1-1.4 3-1.1 3-1.1.6 1.6.2 2.7.1 3 .7.8 1.1 1.8 1.1 3 0 4.3-2.6 5.3-5.1 5.6.4.4.8 1.1.8 2.2v3.3c0 .3.2.6.8.5 4.4-1.5 7.6-5.7 7.6-10.6C22.4 5 17.5 0 11 0z"/></g><text x="26" y="14" font-family="'JetBrains Mono','SF Mono','Cascadia Code',ui-monospace,Menlo,Consolas,monospace" font-size="12.5" fill="#93A0B4">marcoalfans</text></g>
<g transform="translate(201.2,392)" opacity="0"><animate attributeName="opacity" values="0;1" dur="0.5s" begin="2.0s" fill="freeze"/><g transform="scale(0.8)" fill="#93A0B4"><path d="M1.6 7.3h4v14h-4zM3.6 1a2.3 2.3 0 100 4.6 2.3 2.3 0 000-4.6zM8.5 7.3h3.8v1.9h.1c.5-1 1.8-2.1 3.8-2.1 4 0 4.8 2.6 4.8 6.1v8.1h-4v-7.2c0-1.7 0-3.9-2.4-3.9s-2.7 1.9-2.7 3.8v7.3h-4z"/></g><text x="26" y="14" font-family="'JetBrains Mono','SF Mono','Cascadia Code',ui-monospace,Menlo,Consolas,monospace" font-size="12.5" fill="#93A0B4">in/marcoalfans</text></g>
<g transform="translate(360.0,392)" opacity="0"><animate attributeName="opacity" values="0;1" dur="0.5s" begin="2.0s" fill="freeze"/><g transform="scale(0.8)" fill="none" stroke="#93A0B4"><path d="M11 1 L20 6 L20 16 L11 21 L2 16 L2 6 Z" fill="none" stroke-width="1.5" stroke-linejoin="round"/><path d="M8 7.2 V14.8 M14 7.2 V14.8 M8 11 H14" fill="none" stroke-width="1.9" stroke-linecap="round"/></g><text x="26" y="14" font-family="'JetBrains Mono','SF Mono','Cascadia Code',ui-monospace,Menlo,Consolas,monospace" font-size="12.5" fill="#93A0B4">HackTheBox</text></g>
<g transform="translate(490.0,392)" opacity="0"><animate attributeName="opacity" values="0;1" dur="0.5s" begin="2.0s" fill="freeze"/><g transform="scale(0.8)" fill="none" stroke="#93A0B4"><circle cx="11" cy="11" r="10.2" fill="none" stroke-width="1.4"/><ellipse cx="11" cy="11" rx="4.2" ry="10.2" fill="none" stroke-width="1.2"/><line x1="0.8" y1="11" x2="21.2" y2="11" stroke-width="1.2"/></g><text x="26" y="14" font-family="'JetBrains Mono','SF Mono','Cascadia Code',ui-monospace,Menlo,Consolas,monospace" font-size="12.5" fill="#93A0B4">marcoalfans.github.io</text></g>
</svg>
